<svg width="60" height="60" viewBox="0 0 60 60" fill="none" xmlns="http://www.w3.org/2000/svg">
<path d="M30 0C13.4 0 0 13.4 0 30C0 46.6 13.4 60 30 60C46.6 60 60 46.6 60 30C60 13.4 46.6 0 30 0ZM30 3.525C33 3.525 35.9 4.075 38.575 5L30.325 22.825C30.225 22.925 30.225 23.15 30 23.15C29.775 23.15 29.775 22.925 29.675 22.825L21.425 5C24.1 4.075 27 3.55 30 3.55M17.25 6.85L26.8 27.425C27 27.85 27.225 27.975 27.5 27.975H32.5C32.8 27.975 33 27.85 33.225 27.425L42.65 6.85C46.6 9.1 50 12.325 52.4 16.175L39 42.1C38.9 42.325 38.75 42.425 38.675 42.425C38.475 42.425 38.475 42.225 38.35 42.1L33.225 30.75C33 30.325 32.8 30.225 32.5 30.225H27.5C27.225 30.225 27 30.325 26.775 30.75L21.65 42.1C21.525 42.225 21.55 42.425 21.325 42.425C21.1 42.425 21.1 42.225 21 42.1L7.5 16.175C9.85 12.325 13.3 9.1 17.25 6.85ZM5.15 21.325L20.575 51.325C20.775 51.75 21 52.075 21.55 52.075C22.075 52.075 22.275 51.75 22.5 51.325L29.675 35.35C29.775 35.15 29.9 35 30 35C30.225 35 30.225 35.25 30.325 35.35L37.6 51.325C37.825 51.75 38.025 52.075 38.575 52.075C39.1 52.075 39.325 51.75 39.525 51.325L55 21.325C55.925 24 56.475 26.9 56.475 30C56.35 44.475 44.475 56.475 30 56.475C15.525 56.475 3.65 44.475 3.65 30C3.65 27 4.175 24.125 5.15 21.325Z" fill="white"/>
</svg>
