<svg width="92" height="34" viewBox="0 0 92 34" fill="none" xmlns="http://www.w3.org/2000/svg">
<path d="M46 2.78044C22.5093 2.78044 3.46917 9.18 3.46917 17.0076C3.46917 24.8351 22.5093 31.2309 46 31.2309C69.4868 31.2309 88.527 24.8351 88.527 17.0076C88.527 9.17622 69.4868 2.78044 46 2.78044ZM24.1577 26.3538C21.643 26.3727 19.4312 24.8427 19.1743 22.1944C19.0284 20.8145 19.4325 19.4328 20.3013 18.3411C21.0488 17.3816 22.3138 16.5844 23.3833 16.388C23.7283 16.3238 24.1998 16.3653 24.3953 16.592C24.6982 16.9433 24.61 17.3249 24.3072 17.476C23.4907 17.8878 22.5055 18.5904 22.0187 19.5538C21.7957 19.9623 21.69 20.423 21.7129 20.8863C21.7359 21.3496 21.8867 21.798 22.149 22.1831C23.1572 23.6829 25.9708 23.7244 28.5852 21.3331C29.233 20.7438 29.8118 20.1847 30.3983 19.5198C31.5483 18.2202 31.9317 17.7442 33.465 15.6513C33.4842 15.6287 33.488 15.5984 33.4803 15.5833C33.4688 15.5569 33.4458 15.5456 33.4037 15.5456C32.3802 15.572 31.487 15.8742 30.6245 16.5089C30.3753 16.6902 30.015 16.6638 29.8578 16.4296C29.6815 16.1651 29.808 15.8138 30.0955 15.6173C31.487 14.6616 33.0088 14.4916 34.5652 14.2309C34.5652 14.2309 34.6725 14.2384 34.7607 14.1176C35.4008 13.3129 35.88 12.5876 36.5623 11.7716C37.2447 10.9404 38.134 10.1849 38.8087 9.61067C39.7517 8.80978 40.3573 8.54155 40.9707 8.21289C41.1355 8.12978 40.9515 8.02778 40.9017 8.02778C37.467 7.39311 33.8982 6.56956 30.4865 7.81622C28.1252 8.68511 27.0863 10.5287 27.5847 11.764C27.9412 12.6367 29.1065 12.784 30.2028 12.2551C31.1562 11.7891 31.9651 11.0794 32.545 10.2C32.8785 9.69378 33.58 10.0564 33.2005 10.9367C32.2038 13.2449 30.2987 15.0809 27.9757 15.1602C25.9977 15.2207 24.7212 13.7889 24.725 12.0209C24.7327 8.53022 28.6733 6.23333 32.8133 5.89333C37.8005 5.48533 42.5232 6.79622 47.4758 7.38556C51.267 7.83889 54.9048 7.85022 58.7152 6.98511C59.1675 6.89067 59.4818 7.174 59.455 7.61978C59.4167 8.26956 58.9068 8.89289 57.6533 9.56911C56.2235 10.3398 54.7285 10.574 53.1683 10.5891C49.3963 10.6193 45.8812 9.16866 42.2433 8.39044C42.251 8.54533 42.2893 8.73422 42.1552 8.83245C40.1427 10.2982 38.3218 11.7867 37.1028 13.872C37.0607 13.9211 37.0837 13.9664 37.1527 13.9627C38.2145 13.906 39.1652 13.8796 40.1542 13.804C40.3267 13.7889 40.3343 13.7473 40.319 13.6227C40.2648 13.2364 40.3063 12.843 40.4398 12.4759C40.5733 12.1089 40.7949 11.7791 41.0857 11.5147C41.745 10.9367 42.5692 10.8724 43.1173 11.288C43.7307 11.764 43.6808 12.6216 43.3397 13.2638C43.1878 13.5458 42.9799 13.7948 42.7283 13.996C42.4767 14.1972 42.1866 14.3465 41.8753 14.4349C41.8753 14.4349 41.7603 14.4576 41.7757 14.5633C41.7987 14.7258 42.5423 15.1338 42.6075 15.2433C42.6727 15.3453 42.6382 15.5078 42.527 15.6287C42.4828 15.6818 42.4272 15.7245 42.3643 15.7539C42.3013 15.7833 42.2325 15.7986 42.1628 15.7987C42.0363 15.7987 41.9597 15.7533 41.7948 15.6664C41.4003 15.4602 41.049 15.182 40.7598 14.8467C40.6678 14.7296 40.618 14.7258 40.3803 14.7371C39.3108 14.8013 37.6433 14.96 36.5125 15.0998C36.2403 15.13 36.1982 15.1829 36.1445 15.2773C34.3428 18.2051 32.4185 21.3596 30.3063 23.4751C28.037 25.7418 26.1548 26.3387 24.1577 26.3538ZM73.025 12.1267C72.6762 12.7236 65.9372 22.8329 65.5117 23.8756C65.3775 24.208 65.3583 24.4611 65.4963 24.6462C65.849 25.1147 66.6348 24.8389 67.1255 24.5027C68.586 23.5129 69.598 22.3116 70.7173 21.2613C70.7825 21.2122 70.8937 21.1933 70.9665 21.2613C71.1313 21.4124 71.3728 21.6051 71.5415 21.7789C71.5565 21.7924 71.5686 21.8088 71.5771 21.827C71.5856 21.8452 71.5904 21.8649 71.5911 21.885C71.5918 21.905 71.5885 21.925 71.5813 21.9438C71.5741 21.9625 71.5632 21.9797 71.5492 21.9942C70.5251 23.2627 69.363 24.4168 68.0838 25.4358C66.2822 26.8109 64.4843 27.1622 63.5912 26.282C63.2762 25.9581 63.0863 25.5357 63.0545 25.0882C63.0468 24.8729 62.9357 24.8616 62.8322 24.9598C61.7665 25.9987 59.9188 27.1471 58.2398 26.3273C56.8368 25.6473 56.511 23.9927 56.7717 22.6024C56.7755 22.5722 56.7487 22.3758 56.5762 22.4891C56.2222 22.7427 55.8355 22.9486 55.4262 23.1011C54.9861 23.2992 54.5069 23.3985 54.0232 23.392C53.6753 23.3959 53.3325 23.3097 53.0291 23.1419C52.7257 22.9742 52.4723 22.7308 52.2943 22.4362C52.0681 22.0343 51.9432 21.5847 51.9302 21.1253C51.9263 21.0838 51.865 21.0044 51.8037 21.1064C50.6537 22.8329 49.5842 24.5027 48.4495 26.2556C48.3882 26.3387 48.3345 26.3916 48.2195 26.3953L45.9693 26.3991C45.8313 26.3991 45.7662 26.2933 45.839 26.1611C46.2377 25.4056 48.4227 22.27 49.9023 19.6029C50.3125 18.87 50.2282 18.4922 49.9752 18.3298C49.657 18.1258 49.0245 18.4318 48.4917 18.8322C47.0388 19.9164 45.8198 21.6089 45.1988 22.3644C44.8347 22.8064 44.4897 23.4638 43.539 24.48C42.0402 26.0856 40.0507 27.0073 38.1417 26.3689C37.6374 26.2005 37.1828 25.9127 36.8179 25.5306C36.4529 25.1485 36.1888 24.684 36.0487 24.1778C35.9912 23.9813 35.88 23.9284 35.7688 24.0569C35.4622 24.4347 34.8297 24.9976 34.3007 25.3489C34.2432 25.3904 34.1013 25.4736 33.9787 25.4131C33.7479 25.1922 33.5515 24.9389 33.396 24.6613C33.3729 24.611 33.3664 24.5547 33.3774 24.5005C33.3884 24.4463 33.4163 24.3968 33.4573 24.3591C34.2125 23.7056 34.6265 23.3353 34.9562 22.9236C35.2015 22.6213 35.3893 22.2813 35.6078 21.7336C36.0678 20.5927 37.1143 18.462 39.2035 17.3589C39.9753 16.9282 40.8237 16.6474 41.7028 16.5316C42.0862 16.4938 42.4043 16.5391 42.5193 16.8338C42.5615 16.9584 42.6688 17.2304 42.734 17.4307C42.7762 17.5516 42.7455 17.646 42.5998 17.6989C41.3732 18.1598 40.135 18.8738 39.284 20.0033C38.3142 21.2802 38.0535 22.8216 38.7013 23.7056C39.1728 24.3478 39.9357 24.4611 40.6717 24.2307C41.7833 23.8831 42.734 22.8593 43.2247 21.726C43.7537 20.4831 43.838 19.0173 43.447 17.7253C43.3857 17.5024 43.4432 17.3324 43.5888 17.2116C43.884 16.9736 44.2942 16.7884 44.413 16.728C44.53 16.6663 44.6661 16.6495 44.795 16.6809C44.9238 16.7123 45.0363 16.7897 45.1107 16.898C45.517 17.4911 45.7355 18.326 45.7623 19.1911C45.7853 19.3762 45.862 19.38 45.954 19.2856C46.6823 18.5224 47.357 17.7064 48.1313 17.0944C48.8405 16.5391 49.749 16.0858 50.5962 16.1047C51.6925 16.1273 52.2368 16.8602 52.2023 18.1673C52.1985 18.3336 52.3173 18.3184 52.3978 18.2089C52.6519 17.8328 52.9621 17.4965 53.3178 17.2116C54.0768 16.5958 54.8512 16.32 55.66 16.3729C56.6567 16.4484 57.454 17.3438 57.2892 18.3638C57.2494 18.6864 57.1306 18.9946 56.9429 19.2618C56.7552 19.5291 56.5044 19.7472 56.212 19.8976C55.9662 20.0266 55.6867 20.0797 55.4098 20.0501C55.1329 20.0204 54.8715 19.9094 54.6595 19.7313C54.4952 19.5782 54.3747 19.3852 54.3101 19.1717C54.2455 18.9582 54.2391 18.7316 54.2915 18.5149C54.3107 18.4204 54.188 18.3336 54.0845 18.4393C53.1108 19.4367 53.038 20.7287 53.6743 21.3104C54.3758 21.9527 55.43 21.522 56.1967 21.0271C57.5997 20.1242 58.6883 18.9002 59.9495 17.9558C60.7852 17.3287 61.7397 16.7696 62.8092 16.6298C63.3967 16.5413 63.9975 16.6091 64.5495 16.8262C65.3162 17.1322 65.7992 17.7707 65.8605 18.3222C65.8758 18.4847 65.9985 18.5036 66.102 18.36C66.7077 17.4307 69.9545 12.6291 70.2228 12.1267C70.2995 11.9718 70.3915 11.9491 70.564 11.9491H72.887C73.0212 11.9491 73.0825 12.0247 73.025 12.1267ZM64.1317 20.4529C64.1079 20.4998 64.1038 20.5541 64.1202 20.604C64.1317 20.6796 64.2352 20.7551 64.3348 20.7929C64.3732 20.8042 64.3923 20.8307 64.3502 20.9138C64.0627 21.5182 63.802 21.8658 63.4417 22.3909C63.1233 22.8549 62.7356 23.2688 62.2917 23.6187C61.6093 24.174 60.6663 24.7784 59.8843 24.3742C59.5393 24.1967 59.386 23.7169 59.3975 23.3316C59.4128 22.2436 59.9035 21.1253 60.812 20.026C61.916 18.6849 63.1388 17.9898 63.94 18.3713C64.768 18.7604 64.5073 19.7124 64.1317 20.4529ZM41.3272 13.3469C41.2983 13.1055 41.3293 12.8609 41.4174 12.6339C41.5056 12.4069 41.6482 12.2043 41.8332 12.0436C42.0517 11.8547 42.343 11.8093 42.5232 11.9604C42.7225 12.1304 42.6267 12.5536 42.4235 12.8444C42.2029 13.172 41.8692 13.4096 41.4843 13.5131C41.4153 13.5282 41.354 13.498 41.3272 13.3469ZM46 0C20.47 0 0 7.54422 0 17C0 26.3991 20.6348 34 46 34C71.3652 34 92 26.3689 92 17C92 7.63111 71.3652 0 46 0ZM46 32.5191C21.6545 32.5191 1.91667 25.5756 1.91667 17.0076C1.91667 8.43578 21.6583 1.49222 46 1.49222C70.3417 1.49222 90.0757 8.43578 90.0757 17.0076C90.0757 25.5756 70.3417 32.5191 46 32.5191Z" fill="white"/>
</svg>
