<svg width="94" height="22" viewBox="0 0 94 22" fill="none" xmlns="http://www.w3.org/2000/svg">
<path d="M54.5318 19.4755C54.5318 19.6547 54.5905 19.756 54.6923 19.756C54.7749 19.7449 54.8532 19.7127 54.9195 19.6625L84.2162 0.751907C84.7111 0.407149 85.3042 0.229609 85.9082 0.245443H92.3472C93.3342 0.245443 94 0.89995 94 1.88171V14.1109C94 15.5913 93.671 16.4484 92.355 17.2315L84.5452 21.9065C84.4675 21.9601 84.377 21.9924 84.2827 22C84.1888 22 84.0948 21.926 84.0948 21.6572V7.38658C84.0948 7.21905 84.0478 7.10997 83.9342 7.10997C83.8511 7.11917 83.7723 7.15159 83.707 7.20347L62.2985 21.0377C61.8138 21.3659 61.2398 21.5385 60.6535 21.5325H46.4595C45.4647 21.5325 44.8067 20.878 44.8067 19.8884V2.2635C44.8067 2.13494 44.7479 2.01417 44.6343 2.01417C44.5529 2.02504 44.4758 2.05731 44.4111 2.10767L30.2837 10.5344C30.1427 10.6279 30.1035 10.6942 30.1035 10.7604C30.1035 10.8149 30.1348 10.8734 30.2288 10.9747L40.3221 21.0066C40.4552 21.139 40.5492 21.2403 40.5492 21.3533C40.5492 21.4468 40.3965 21.5208 40.2202 21.5208H31.0983C30.3816 21.5208 29.8293 21.4195 29.4416 21.0338L23.3237 14.9563C23.3006 14.9286 23.2719 14.9061 23.2396 14.89C23.2072 14.8739 23.1719 14.8646 23.1357 14.8628C23.0692 14.8665 23.0046 14.8866 22.9478 14.9212L12.7253 21.0377C12.2364 21.3643 11.6571 21.5305 11.0685 21.513H1.66458C0.658 21.5208 0 20.8585 0 19.8806V7.88136C0 6.40092 0.329 5.54383 1.65283 4.76466L9.5175 0.0623369C9.57855 0.0237774 9.64889 0.00224541 9.72117 0C9.8465 0 9.90917 0.116878 9.90917 0.389589V16.4562C9.90917 16.6237 9.94833 16.7016 10.0698 16.7016C10.1542 16.6886 10.2346 16.6566 10.3048 16.6081L36.8441 0.716841C37.3586 0.372349 37.9715 0.202865 38.5909 0.233754H52.8789C53.8659 0.233754 54.5318 0.888261 54.5318 1.87002L54.5239 19.4716L54.5318 19.4755Z" fill="white"/>
</svg>
