<svg width="68" height="35" viewBox="0 0 68 35" fill="none" xmlns="http://www.w3.org/2000/svg">
<path d="M33.9972 35C52.7737 35 68 27.1656 68 17.5028C68 7.83442 52.7737 0 33.9972 0C15.2263 0 0 7.83442 0 17.5028C0 27.1656 15.2263 35 33.9972 35ZM40.4005 26.4137C39.8338 27.7351 38.8563 30.5545 36.6152 31.6823C35.9352 32.0212 35.0937 32.1778 34.3485 32.2091H34C27.727 32.2091 21.8847 31.3263 16.9943 29.834L16.8073 29.7628C16.354 29.6119 16.1273 29.4011 16.1273 29.142C16.1273 28.917 16.2492 28.7433 16.4078 28.5867L16.7167 28.3104C17.85 27.3649 21.2443 24.893 27.6477 22.4239C29.8945 21.5667 32.708 20.4902 35.6518 19.8609C37.3745 19.502 43.7807 18.5138 40.4005 26.4137ZM57.5733 8.77421C57.6952 8.56347 57.8567 8.38405 58.1485 8.36981C58.3072 8.35272 58.5225 8.38975 58.8512 8.59764C62.8433 11.0667 65.212 14.1566 65.212 17.4972C65.212 23.5289 57.494 28.7177 46.4553 30.9817C45.7527 31.1241 45.2767 31.1184 45.1208 30.939C45.0075 30.8308 44.9792 30.6371 45.1208 30.3979C45.2037 30.2498 45.3025 30.1113 45.4155 29.9849C51.4222 22.8653 56.0008 12.3596 57.3013 9.32953C57.4005 9.11879 57.494 8.9109 57.5733 8.77421ZM27.7015 8.54923C28.2682 7.23068 29.2457 4.40846 31.484 3.29211C32.164 2.95037 33.0055 2.78519 33.7507 2.76526C33.9235 2.75956 34.0453 2.76526 34.0907 2.76526C40.3722 2.76526 46.206 3.6367 51.102 5.13751C51.1388 5.1546 51.2522 5.19447 51.289 5.20871C51.7423 5.36249 51.969 5.57038 51.969 5.82954C51.969 6.05452 51.85 6.21969 51.6913 6.37917C51.591 6.4743 51.487 6.5655 51.3797 6.65256C50.2548 7.60659 46.852 10.0728 40.4487 12.5419C38.1962 13.4076 35.3883 14.4756 32.453 15.1021C30.7247 15.4723 24.3213 16.4491 27.7015 8.54923ZM21.5333 4.01261C22.2417 3.87592 22.7092 3.87591 22.882 4.05533C22.9812 4.16924 23.0095 4.3572 22.8763 4.59642C22.7916 4.74067 22.6929 4.87613 22.5817 5.00081C16.575 12.129 11.9935 22.6261 10.6873 25.6648C10.6054 25.8541 10.5146 26.0394 10.4153 26.2201C10.302 26.428 10.1348 26.6074 9.84867 26.6245C9.69 26.6387 9.46617 26.5932 9.1375 26.3938C5.14817 23.9247 2.77667 20.8377 2.77667 17.4972C2.77667 11.4654 10.4947 6.27665 21.5333 4.01261Z" fill="white"/>
</svg>
