<svg width="60" height="41" viewBox="0 0 60 41" fill="none" xmlns="http://www.w3.org/2000/svg">
<path d="M30 0C13.0575 0 0 8.625 0 20.38C0 32.135 13.06 40.76 30 40.76C46.94 40.76 60 32.135 60 20.38C60 8.625 46.9425 0 30 0ZM48.335 9.5975C48.335 12.2975 44.0225 14.38 37.115 15.2125C36.465 8.7625 34.6025 4.515 32.2075 2.93C39.5775 3.39 48.335 5.9975 48.335 9.5975ZM30 31.3825C27.6 31.3825 25.635 27.6325 25.48 20.41C26.9225 20.5275 28.43 20.59 30 20.59C31.57 20.59 33.075 20.5275 34.5175 20.41C34.365 27.635 32.4 31.3825 30 31.3825ZM30 15.6125C28.525 15.6125 27.1125 15.565 25.775 15.4775C26.4275 11.1575 28.075 7.6025 30 7.6025C31.925 7.6025 33.57 11.1575 34.2225 15.4775C32.885 15.5625 31.475 15.6125 30 15.6125ZM27.795 2.925C25.405 4.5075 23.53 8.7575 22.885 15.2125C15.9775 14.38 11.6625 12.2975 11.6625 9.5975C11.6625 5.9975 20.4225 3.3725 27.795 2.925ZM5.0925 19.58C5.08619 16.7292 6.00561 13.9534 7.7125 11.67C8.3875 15.5375 14.0175 18.8725 22.6425 20.095V20.38C22.6425 29.81 24.84 35.8875 27.86 37.805C15.0925 37.0025 5.0925 29.105 5.0925 19.58ZM32.15 37.805C35.1675 35.8875 37.3675 29.81 37.3675 20.38V20.0925C45.985 18.8725 51.6275 15.5275 52.2975 11.6675C54.0066 13.9508 54.927 16.7279 54.92 19.58C54.91 29.105 44.9025 37.0025 32.15 37.805Z" fill="white"/>
</svg>
