<svg width="85" height="56" viewBox="0 0 85 56" fill="none" xmlns="http://www.w3.org/2000/svg">
<path fill-rule="evenodd" clip-rule="evenodd" d="M72.8909 11.5959H11.2909C6.65175 11.5959 2.89094 15.4038 2.89094 20.1011V44.4825C2.89094 49.1798 6.65175 52.9877 11.2909 52.9877H72.8909C77.5301 52.9877 81.2909 49.1798 81.2909 44.4825V20.1011C81.2909 15.4038 77.5301 11.5959 72.8909 11.5959ZM11.2909 8.7609C5.10535 8.7609 0.0909424 13.8381 0.0909424 20.1011V44.4825C0.0909424 50.7456 5.10535 55.8228 11.2909 55.8228H72.8909C79.0765 55.8228 84.0909 50.7456 84.0909 44.4825V20.1011C84.0909 13.8381 79.0765 8.7609 72.8909 8.7609H11.2909Z" fill="#F3B30E"/>
<path d="M11.2909 3.3743C11.2909 1.96512 12.4192 0.822754 13.8109 0.822754H25.5709C26.9627 0.822754 28.0909 1.96512 28.0909 3.3743C28.0909 4.78348 26.9627 5.92585 25.5709 5.92585H13.8109C12.4192 5.92585 11.2909 4.78348 11.2909 3.3743Z" fill="#F3B30E"/>
<path d="M56.0909 3.3743C56.0909 1.96512 57.2192 0.822754 58.6109 0.822754H70.3709C71.7627 0.822754 72.8909 1.96512 72.8909 3.3743C72.8909 4.78348 71.7627 5.92585 70.3709 5.92585H58.6109C57.2192 5.92585 56.0909 4.78348 56.0909 3.3743Z" fill="#F3B30E"/>
<path d="M18.5709 17.2661H20.8109V28.6063H18.5709V17.2661Z" fill="#F3B30E"/>
<path d="M25.2909 21.8021V24.0702H14.0909V21.8021H25.2909Z" fill="#F3B30E"/>
<path d="M70.0909 21.8021V24.0702H58.8909V21.8021H70.0909Z" fill="#F3B30E"/>
</svg>
