<svg width="114" height="76" viewBox="0 0 114 76" fill="none" xmlns="http://www.w3.org/2000/svg">
<path d="M111.435 22.6773H103.902C103.149 22.6773 102.395 23.2398 102.207 23.9897L96.9336 39.5523H91.8486L86.7636 31.1148C86.3868 30.5523 85.8218 30.1772 85.0686 30.1772H77.5353V24.5522C77.5353 23.4272 76.782 22.6773 75.652 22.6773H62.4683V15.1774H68.1183C69.2483 15.1774 70.0016 14.4274 70.0016 13.3024V2.05242C70.0016 0.927417 69.2483 0.17749 68.1183 0.17749H34.2183C33.0882 0.17749 32.335 0.927417 32.335 2.05242V13.3024C32.335 14.4274 33.0882 15.1774 34.2183 15.1774H39.8683V22.6773H24.8015C24.2365 22.6773 23.8597 22.8647 23.4832 23.2398C23.1067 23.6149 22.9182 23.9897 22.9182 24.5522V30.1772H9.73494C8.60494 30.1772 7.85168 30.9272 7.85168 32.0522V43.3022H4.08493V37.6774C4.08493 36.5524 3.33167 35.8024 2.20167 35.8024C1.07167 35.8024 0.318184 36.5524 0.318184 37.6774V52.6775C0.318184 53.8025 1.07145 54.5524 2.20145 54.5524C3.33145 54.5524 4.08471 53.8025 4.08471 52.6775V47.0525H7.85146V62.0525C7.85146 63.1775 8.60472 63.9275 9.73472 63.9275H23.8597L30.828 74.4276C31.2048 74.8026 31.7698 75.1775 32.3348 75.1775H85.0684C85.8216 75.1775 86.3866 74.8024 86.7634 74.0525L91.8484 63.9275H97.1216L102.207 74.0525C102.583 74.8024 103.148 75.1775 103.902 75.1775H111.435C112.565 75.1775 113.318 74.4276 113.318 73.3026V24.5524C113.318 23.4274 112.565 22.6773 111.435 22.6773ZM36.1015 3.92735H66.2348V11.4273H60.5848H41.7515H36.1015V3.92735ZM43.635 15.1774H58.7018V22.6773H43.635V15.1774ZM11.6182 60.1774V33.9273H22.9182V60.1774H11.6182ZM83.7501 71.4274H33.2765L26.6848 61.4949V32.0524V26.4274H41.7515H60.5848H73.7683V32.0524C73.7683 33.1774 74.5216 33.9273 75.6516 33.9273H83.9383L88.8351 42.0524V61.3024L83.7501 71.4274ZM92.6016 60.1774V43.3024H96.3684V60.1774H92.6016ZM109.552 71.4274H105.032L100.135 62.0255V41.434L105.22 26.4274H109.552V71.4274Z" fill="#F3B30E"/>
</svg>
