<svg width="119" height="37" viewBox="0 0 119 37" fill="none" xmlns="http://www.w3.org/2000/svg">
<path d="M99.2732 12.6017V2.54077C99.2732 1.35713 98.4842 0.568115 97.3005 0.568115H20.3639C19.1802 0.568115 18.3912 1.35713 18.3912 2.54077V10.4316H2.60903C1.42538 10.4319 0.636368 11.2209 0.636368 12.4045V24.2409C0.636368 25.4246 1.42538 26.2136 2.60903 26.2136H18.391V34.1045C18.391 35.2881 19.18 36.0771 20.3636 36.0771H97.3003C98.4839 36.0771 99.273 35.2881 99.273 34.1045V24.4381C102.627 25.2272 106.967 27.9891 107.164 34.1045C107.164 35.2881 108.15 36.0771 109.136 36.0771H117.027C117.619 36.0771 118.014 35.8799 118.408 35.4853C118.803 35.0907 119 34.6963 119 34.1045C118.803 21.6765 108.94 13.5882 99.2732 12.6017ZM110.912 32.1318C109.729 24.0435 102.232 20.2954 97.3003 20.2954C96.1167 20.2954 95.3276 21.0844 95.3276 22.268V32.1318H22.3365V24.2409C22.3365 23.0573 21.5475 22.2683 20.3639 22.2683H4.58191V14.3774H20.3639C21.5475 14.3774 22.3365 13.5884 22.3365 12.4048V4.5139H95.3276V14.3776C95.3276 15.5613 96.1167 16.3503 97.3003 16.3503C103.81 16.3503 113.477 21.2821 114.858 32.1323H110.912V32.1318Z" fill="#F3B30E"/>
<path d="M30.2274 8.45874C29.0437 8.45874 28.2547 9.24776 28.2547 10.4314C28.2547 11.615 29.0437 12.4041 30.2274 12.4041C31.411 12.4041 32.2 11.615 32.2 10.4314C32.2 9.24799 31.411 8.45874 30.2274 8.45874Z" fill="#F3B30E"/>
<path d="M36.1456 16.3499C34.962 16.3499 34.173 17.1389 34.173 18.3225C34.173 19.5062 34.962 20.2952 36.1456 20.2952C37.3293 20.2952 38.1183 19.5062 38.1183 18.3225C38.1183 17.1389 37.3293 16.3499 36.1456 16.3499Z" fill="#F3B30E"/>
<path d="M42.0638 8.45874C40.8802 8.45874 40.0912 9.24776 40.0912 10.4314C40.0912 11.615 40.8802 12.4041 42.0638 12.4041C43.2474 12.4041 44.0365 11.615 44.0365 10.4314C44.0365 9.24799 43.2474 8.45874 42.0638 8.45874Z" fill="#F3B30E"/>
<path d="M47.982 16.3499C46.7984 16.3499 46.0093 17.1389 46.0093 18.3225C46.0093 19.5062 46.7984 20.2952 47.982 20.2952C49.1656 20.2952 49.9547 19.5062 49.9547 18.3225C49.9547 17.1389 49.1656 16.3499 47.982 16.3499Z" fill="#F3B30E"/>
<path d="M53.9002 8.45874C52.7166 8.45874 51.9276 9.24776 51.9276 10.4314C51.9276 11.615 52.7166 12.4041 53.9002 12.4041C55.0839 12.4041 55.8729 11.615 55.8729 10.4314C55.8729 9.24799 55.0839 8.45874 53.9002 8.45874Z" fill="#F3B30E"/>
<path d="M59.8184 16.3499C58.6348 16.3499 57.8458 17.1389 57.8458 18.3225C57.8458 19.5062 58.6348 20.2952 59.8184 20.2952C61.0021 20.2952 61.7911 19.5062 61.7911 18.3225C61.7911 17.1389 61.0021 16.3499 59.8184 16.3499Z" fill="#F3B30E"/>
<path d="M65.7367 8.45874C64.553 8.45874 63.764 9.24776 63.764 10.4314C63.764 11.615 64.553 12.4041 65.7367 12.4041C66.9203 12.4041 67.7093 11.615 67.7093 10.4314C67.7093 9.24799 66.9203 8.45874 65.7367 8.45874Z" fill="#F3B30E"/>
<path d="M71.6548 16.3499C70.4712 16.3499 69.6822 17.1389 69.6822 18.3225C69.6822 19.5062 70.4712 20.2952 71.6548 20.2952C72.8385 20.2952 73.6275 19.5062 73.6275 18.3225C73.6275 17.1389 72.8385 16.3499 71.6548 16.3499Z" fill="#F3B30E"/>
<path d="M77.573 8.45874C76.3894 8.45874 75.6004 9.24776 75.6004 10.4314C75.6004 11.615 76.3894 12.4041 77.573 12.4041C78.7567 12.4041 79.5457 11.615 79.5457 10.4314C79.5457 9.24799 78.7567 8.45874 77.573 8.45874Z" fill="#F3B30E"/>
<path d="M83.4913 16.3499C82.3076 16.3499 81.5186 17.1389 81.5186 18.3225C81.5186 19.5062 82.3076 20.2952 83.4913 20.2952C84.6749 20.2952 85.4639 19.5062 85.4639 18.3225C85.4639 17.1389 84.6749 16.3499 83.4913 16.3499Z" fill="#F3B30E"/>
<path d="M87.4368 8.45874C86.2531 8.45874 85.4641 9.24776 85.4641 10.4314C85.4641 11.615 86.2531 12.4041 87.4368 12.4041C88.6204 12.4041 89.4094 11.615 89.4094 10.4314C89.4094 9.24799 88.6204 8.45874 87.4368 8.45874Z" fill="#F3B30E"/>
<path d="M87.4368 24.241C86.2531 24.241 85.4641 25.03 85.4641 26.2136C85.4641 27.3973 86.2531 28.1863 87.4368 28.1863C88.6204 28.1863 89.4094 27.3973 89.4094 26.2136C89.4094 25.03 88.6204 24.241 87.4368 24.241Z" fill="#F3B30E"/>
<path d="M77.573 24.241C76.3894 24.241 75.6004 25.03 75.6004 26.2136C75.6004 27.3973 76.3894 28.1863 77.573 28.1863C78.7567 28.1863 79.5457 27.3973 79.5457 26.2136C79.5457 25.03 78.7567 24.241 77.573 24.241Z" fill="#F3B30E"/>
<path d="M65.7367 24.241C64.553 24.241 63.764 25.03 63.764 26.2136C63.764 27.3973 64.553 28.1863 65.7367 28.1863C66.9203 28.1863 67.7093 27.3973 67.7093 26.2136C67.7093 25.03 66.9203 24.241 65.7367 24.241Z" fill="#F3B30E"/>
<path d="M53.9002 24.241C52.7166 24.241 51.9276 25.03 51.9276 26.2136C51.9276 27.3973 52.7166 28.1863 53.9002 28.1863C55.0839 28.1863 55.8729 27.3973 55.8729 26.2136C55.8729 25.03 55.0839 24.241 53.9002 24.241Z" fill="#F3B30E"/>
<path d="M42.0638 24.241C40.8802 24.241 40.0912 25.03 40.0912 26.2136C40.0912 27.3973 40.8802 28.1863 42.0638 28.1863C43.2474 28.1863 44.0365 27.3973 44.0365 26.2136C44.0365 25.03 43.2474 24.241 42.0638 24.241Z" fill="#F3B30E"/>
<path d="M30.2274 24.241C29.0437 24.241 28.2547 25.03 28.2547 26.2136C28.2547 27.3973 29.0437 28.1863 30.2274 28.1863C31.411 28.1863 32.2 27.3973 32.2 26.2136C32.2 25.03 31.411 24.241 30.2274 24.241Z" fill="#F3B30E"/>
</svg>
