<svg width="90" height="81" viewBox="0 0 90 81" fill="none" xmlns="http://www.w3.org/2000/svg">
<path d="M11.8485 47.6405L15.4041 51.1961C16.6532 52.5587 18.2513 53.4841 19.9966 53.8429V62.8575L14.6633 61.7147C13.0336 61.2702 11.404 62.3072 11.1077 63.9369L10.5152 66.8997C10.3671 67.6405 10.5152 68.3812 10.9596 69.122C11.404 69.8628 12.1448 70.3072 12.8855 70.4553L27.4041 73.5664C27.5522 73.5664 27.8485 73.5664 27.9966 73.5664C28.5892 73.5664 29.1819 73.4183 29.6263 73.2701C30.3671 72.8256 30.8116 72.0848 30.9596 71.3442L31.5522 68.3812C31.7003 67.6404 31.5522 66.7515 31.1077 66.1589C30.6633 65.4181 29.9225 64.9737 29.1819 64.8256L22.9596 63.4923V53.8846C24.7166 53.5566 26.3978 52.587 27.7004 51.0478L31.256 47.4922C33.0572 46.0513 34.1767 44.2207 34.5364 42.1589H55.6555C56.0052 44.2289 57.2616 46.1447 59.2561 47.6403L62.8116 51.1959C64.0608 52.5586 65.6589 53.4839 67.4042 53.8428V62.8997H61.4783C59.8486 62.8997 58.5153 64.2331 58.5153 65.8628V68.8258C58.5153 70.4555 59.8486 71.7888 61.4783 71.7888H76.2931C77.9228 71.7888 79.2561 70.4555 79.2561 68.8258V65.8628C79.2561 64.2331 77.9228 62.8997 76.2931 62.8997H70.3672V53.8846C72.1241 53.5566 73.8054 52.587 75.108 51.0478L78.6636 47.4922C80.8858 45.7144 82.071 43.3441 82.071 40.6775C82.071 38.0108 80.8858 35.4922 78.6636 33.7144L75.108 30.1589C73.8236 28.7576 72.1703 27.8193 70.3672 27.4835V18.4552H76.2931C77.9228 18.4552 79.2561 17.1218 79.2561 15.4922V12.5293C79.2561 10.8996 77.9228 9.56628 76.2931 9.56628H61.4783C59.8486 9.56628 58.5153 10.8996 58.5153 12.5293V15.4923C58.5153 17.122 59.8486 18.4554 61.4783 18.4554H67.4042V27.4871C65.6472 27.8259 64.0918 28.7625 62.8116 30.159L59.2561 33.7146C57.3 35.2104 56.1517 37.1537 55.7349 39.196H34.5392C34.182 37.0919 33.0612 35.1587 31.256 33.7146L27.7004 30.159C26.4161 28.7578 24.7628 27.8194 22.9596 27.4837V16.8892L28.8855 18.159C29.0336 18.159 29.33 18.159 29.478 18.159C30.0706 18.159 30.6633 18.0109 31.2558 17.7146C31.9966 17.2701 32.4411 16.5293 32.5892 15.7887L33.1817 12.8257C33.3298 12.0849 33.1817 11.196 32.7373 10.6034C32.2928 9.86263 31.552 9.41818 30.8114 9.27009L16.2929 6.1588C15.5521 6.01071 14.6633 6.1588 14.0707 6.60325C13.3299 7.04769 12.8855 7.78849 12.7374 8.52912L12.1448 11.4921C11.7004 13.1218 12.7374 14.7514 14.3671 15.0477L19.9968 16.2541V27.487C18.2398 27.8257 16.6844 28.7623 15.4042 30.1589L11.8485 33.7144C9.32991 35.6403 8.14484 38.307 8.14484 40.9736C8.14484 43.4922 9.47817 46.0108 11.8485 47.6405ZM27.9966 70.6034L13.478 67.6404L14.0707 64.6775L20.9754 66.0867C21.0664 66.1143 21.1624 66.1338 21.2633 66.1454L28.5893 67.6405L27.9966 70.6034ZM76.2931 68.8256H61.4783V65.8626H76.2931V68.8256ZM61.4783 12.5293H76.2931V15.4923H61.4783V12.5293ZM15.5521 9.26992L30.0708 12.381L29.4782 15.3441L22.3638 13.8196C22.1249 13.6573 21.8246 13.5663 21.4782 13.5663C21.4002 13.5663 21.3254 13.5724 21.2522 13.5814L14.9596 12.2329L15.5521 9.26992ZM61.1819 35.9366L61.33 35.7886L65.0337 32.0849C66.0707 30.8997 67.5523 30.3071 69.0337 30.3071C70.5151 30.3071 71.9967 30.8997 73.1818 32.0849L76.8854 35.7886C78.3669 37.1219 79.2558 38.8997 79.2558 40.6775C79.2558 42.3071 78.3669 44.0849 76.8854 45.27C76.7374 45.4181 76.7374 45.4181 76.7374 45.4181L73.0337 49.1217C71.8484 50.4551 70.367 51.0476 68.8856 51.0476C67.4042 51.0476 66.0708 50.3068 64.8856 49.1217L61.1819 45.4181L61.0338 45.27C59.4042 44.0848 58.5153 42.4552 58.5153 40.8255C58.5153 39.0478 59.4042 37.27 61.1819 35.9366ZM13.7744 35.9366L13.9225 35.7886L17.6261 32.0849C18.6631 30.8997 20.1447 30.3071 21.6261 30.3071C23.1075 30.3071 24.5891 30.8997 25.7742 32.0849L29.4779 35.7886C30.9593 37.1219 31.8482 38.8997 31.8482 40.6775C31.8482 42.3071 30.9593 44.0849 29.4779 45.27C29.3298 45.4181 29.3298 45.4181 29.3298 45.4181L25.6263 49.1219C24.4411 50.4553 22.9596 51.0478 21.4782 51.0478C19.9968 51.0478 18.6634 50.307 17.4782 49.1219L13.7745 45.4183L13.6264 45.2702C11.9968 44.0849 11.1079 42.4554 11.1079 40.8257C11.1077 39.0478 11.9966 37.4182 13.7744 35.9366Z" fill="#F3B30E"/>
<path d="M88.145 0.67749H2.21879C1.3299 0.67749 0.737366 1.27003 0.737366 2.15892V79.1961C0.737366 80.085 1.3299 80.6775 2.21879 80.6775H88.1449C89.0337 80.6775 89.6263 80.085 89.6263 79.1961V2.15892C89.6264 1.27003 89.0339 0.67749 88.145 0.67749ZM86.6634 77.7146H3.70039V3.64052H86.6636L86.6634 77.7146Z" fill="#F3B30E"/>
</svg>
