<svg width="528" height="146" viewBox="0 0 528 146" fill="none" xmlns="http://www.w3.org/2000/svg">
<path d="M0 146V0.101946H10.5772V146H0Z" fill="black"/>
<path d="M32.1916 26.5918C36.6754 26.5918 40.1054 28.6635 42.4814 32.8067C44.7808 36.95 45.9305 43.0291 45.9305 51.044V79.0621V121.548V146H35.3533V79.0621V63.372V46.0517C35.3533 42.1122 34.2994 40.2443 32.1916 40.4481C29.9305 40.4481 28.8575 42.3159 28.9725 46.0517V63.372V79.0621V126.54V145.592V146H18.3952V121.548V79.0621V57.1571V51.044V26.5918H24.891L25.3509 28.7314C27.2671 27.305 29.5473 26.5918 32.1916 26.5918Z" fill="black"/>
<path d="M70.7641 26.9994V6.10352e-05H81.3413V26.5918V51.044V57.1571V64.7984V115.435V121.548V146H74.8455L74.3856 143.86C72.5078 145.287 70.2467 146 67.6024 146C63.0802 146 59.6503 143.928 57.3126 139.785C54.9748 135.642 53.806 129.563 53.806 121.548V51.044C53.806 43.0291 54.9748 36.95 57.3126 32.8067C59.6503 28.6635 63.0802 26.5918 67.6024 26.5918C68.7138 26.5918 69.7677 26.7277 70.7641 26.9994ZM70.7641 64.7984V46.0517C70.7641 42.1122 69.7102 40.2443 67.6024 40.4481C65.3413 40.4481 64.2683 42.3159 64.3832 46.0517V126.54C64.3832 130.48 65.4563 132.348 67.6024 132.144C69.8251 132.144 70.879 130.276 70.7641 126.54V64.7984Z" fill="black"/>
<path d="M106.175 26.9994V26.5918H116.752V51.044V93.4278V115.435V121.548V146H110.256L109.796 143.86C107.919 145.287 105.657 146 103.013 146C98.491 146 95.0611 143.928 92.7234 139.785C90.3856 135.642 89.2168 129.563 89.2168 121.548V93.4278V51.044V26.5918H99.794V93.4278V109.22V126.54C99.794 130.48 100.867 132.348 103.013 132.144C105.236 132.144 106.29 130.276 106.175 126.54V109.22V93.4278V46.0517V26.9994Z" fill="black"/>
<path d="M138.424 26.5918C142.908 26.5918 146.338 28.6635 148.714 32.8067C151.013 36.95 152.163 43.0291 152.163 51.044V65.9191H141.586V46.0517C141.586 42.1122 140.532 40.2443 138.424 40.4481C136.163 40.4481 135.09 42.3159 135.205 46.0517V64.289C135.205 65.3078 135.416 66.6323 135.837 68.2624C136.259 69.8247 137.044 71.7265 138.194 73.9679C139.382 76.1415 141.068 78.7225 143.253 81.7111C149.193 89.6581 152.163 98.9296 152.163 109.525V121.548C152.163 129.563 151.013 135.642 148.714 139.785C146.338 143.928 142.908 146 138.424 146C133.902 146 130.472 143.928 128.134 139.785C125.796 135.642 124.628 129.563 124.628 121.548V108.099H135.205V126.54C135.205 130.48 136.278 132.348 138.424 132.144C140.647 132.144 141.701 130.276 141.586 126.54V109.525C141.586 108.507 141.375 107.216 140.953 105.654C140.57 104.024 139.784 102.122 138.596 99.9484C137.408 97.707 135.722 95.0919 133.538 92.1033C127.598 84.1564 124.628 74.8849 124.628 64.289V51.044C124.628 43.0291 125.796 36.95 128.134 32.8067C130.472 28.6635 133.902 26.5918 138.424 26.5918Z" fill="black"/>
<path d="M170.616 6.10352e-05V26.5918H178.721V40.4481H170.616V146H160.038V6.10352e-05H170.616Z" fill="black"/>
<path d="M201.772 26.5918C206.256 26.5918 209.686 28.6635 212.062 32.8067C214.362 36.95 215.511 43.0291 215.511 51.044V67.8549H204.934V63.372V46.0517C204.934 42.1122 203.88 40.2443 201.772 40.4481C199.511 40.4481 198.438 42.3159 198.553 46.0517V63.372V79.0621V126.54V145.592V146H187.976V121.548V79.0621V57.1571V51.044V26.5918H194.472L194.932 28.7314C196.848 27.305 199.128 26.5918 201.772 26.5918Z" fill="black"/>
<path d="M238.965 26.5918H249.542V27.1012V81.5073V87.7223V112.073V121.548C249.542 129.563 248.393 135.642 246.093 139.785C243.717 143.928 240.287 146 235.804 146C231.281 146 227.852 143.928 225.514 139.785C223.176 135.642 222.007 129.563 222.007 121.548V117.167H232.584V126.54C232.584 130.48 233.657 132.347 235.804 132.144C238.026 132.144 239.08 130.276 238.965 126.54V111.767C237.969 111.971 236.915 112.073 235.804 112.073C231.281 112.073 227.852 110.035 225.514 105.96C223.176 101.748 222.007 95.6692 222.007 87.7223V27.1012V52.0628V26.5918H232.584V47.1724V92.6127C232.584 96.6201 233.657 98.522 235.804 98.3182C238.026 98.3182 239.08 96.4164 238.965 92.6127V47.1724V26.5918Z" fill="black"/>
<path d="M318.754 26.5918C323.277 26.5918 326.707 28.6635 329.044 32.8067C331.382 36.95 332.551 43.0291 332.551 51.044V79.0621V121.548V146H321.974V79.0621V63.372V46.0517C321.974 42.1122 320.901 40.2443 318.754 40.4481C316.493 40.4481 315.42 42.3159 315.535 46.0517V51.044V63.372V79.0621V121.548V126.54V145.592V146H304.958V121.548V79.0621V51.044C304.958 50.9761 304.958 50.9421 304.958 50.9421V46.0517C304.958 42.1122 303.904 40.2443 301.796 40.4481C299.535 40.4481 298.462 42.3159 298.577 46.0517V63.372V79.0621V126.54V145.592V146H288V121.548V79.0621V57.1571V51.044V26.5918H294.496L294.956 28.7314C296.872 27.305 299.152 26.5918 301.796 26.5918C305.246 26.5918 308.062 27.8144 310.247 30.2596C312.469 27.8144 315.305 26.5918 318.754 26.5918Z" fill="black"/>
<path d="M361.006 28.7314L361.466 26.5918H367.962V51.044V57.1571V115.435V121.548V146H361.466L361.006 143.86C359.128 145.287 356.867 146 354.223 146C349.701 146 346.271 143.928 343.933 139.785C341.595 135.642 340.426 129.563 340.426 121.548V51.044C340.426 43.0291 341.595 36.95 343.933 32.8067C346.271 28.6635 349.701 26.5918 354.223 26.5918C356.867 26.5918 359.128 27.305 361.006 28.7314ZM357.384 126.54V46.0517C357.384 42.1122 356.331 40.2443 354.223 40.4481C351.962 40.4481 350.889 42.3159 351.004 46.0517V126.54C351.004 130.48 352.077 132.348 354.223 132.144C356.445 132.144 357.499 130.276 357.384 126.54Z" fill="black"/>
<path d="M389.634 26.6937C394.117 26.6937 397.547 28.7314 399.923 32.8067C402.223 37.018 403.372 43.097 403.372 51.044V67.9568H392.795V46.1536C392.795 42.2141 391.741 40.3122 389.634 40.4481C387.372 40.4481 386.299 42.3499 386.414 46.1536V126.54C386.414 130.48 387.487 132.348 389.634 132.144C391.856 132.144 392.91 130.276 392.795 126.54V104.737H403.372V121.548C403.372 129.563 402.223 135.642 399.923 139.785C397.547 143.928 394.117 146 389.634 146C385.111 146 381.681 143.928 379.344 139.785C377.006 135.642 375.837 129.563 375.837 121.548V51.044C375.837 43.097 377.006 37.018 379.344 32.8067C381.681 28.7314 385.111 26.6937 389.634 26.6937Z" fill="black"/>
<path d="M425.044 26.5918C429.528 26.5918 432.958 28.6635 435.334 32.8067C437.634 36.95 438.783 43.0291 438.783 51.044V58.6853V121.548V145.898H428.206V145.592V126.54V71.0133V58.6853V46.0517C428.206 42.1122 427.152 40.2443 425.044 40.4481C422.783 40.4481 421.71 42.3159 421.825 46.0517V71.0133V126.54V145.898H417.744V146H411.248V115.435V71.0133V64.7984V57.1571V26.5918V6.10352e-05H421.825V26.9994C422.822 26.7277 423.895 26.5918 425.044 26.5918Z" fill="black"/>
<path d="M457.236 26.6937V146H446.659V26.6937H457.236ZM457.236 0.101946V18.8486H446.659V0.101946H457.236Z" fill="black"/>
<path d="M478.85 26.5918C483.334 26.5918 486.764 28.6635 489.14 32.8067C491.44 36.95 492.589 43.0291 492.589 51.044V79.0621V121.548V146H482.012V79.0621V63.372V46.0517C482.012 42.1122 480.958 40.2443 478.85 40.4481C476.589 40.4481 475.516 42.3159 475.631 46.0517V63.372V79.0621V126.54V145.592V146H465.054V121.548V79.0621V57.1571V51.044V26.5918H471.55L472.01 28.7314C473.926 27.305 476.206 26.5918 478.85 26.5918Z" fill="black"/>
<path d="M514.261 26.6937C518.745 26.6937 522.175 28.7314 524.551 32.8067C526.85 37.018 528 43.097 528 51.044V79.3678V86.3978V93.3259H511.042V126.54C511.042 130.48 512.115 132.348 514.261 132.144C516.484 132.144 517.538 130.276 517.423 126.54V104.737H528V121.548C528 129.563 526.85 135.642 524.551 139.785C522.175 143.928 518.745 146 514.261 146C509.739 146 506.309 143.928 503.971 139.785C501.634 135.642 500.465 129.563 500.465 121.548V51.044C500.465 43.097 501.634 37.018 503.971 32.8067C506.309 28.7314 509.739 26.6937 514.261 26.6937ZM511.042 79.3678H517.423V46.1536C517.423 42.2141 516.369 40.3122 514.261 40.4481C512 40.4481 510.927 42.3499 511.042 46.1536V79.3678Z" fill="black"/>
</svg>
