<svg width="100" height="30" viewBox="0 0 100 30" fill="none" xmlns="http://www.w3.org/2000/svg">
<path d="M30 6.91403L26 13.8281L17.9999 13.8281L13.9999 6.91403L17.9999 3.48324e-07L26 0L30 6.91403Z" fill="#2094FF"/>
<path d="M16.0005 15L12.0005 21.914L4.0004 21.914L0.000368118 15L4.0004 8.08594L12.0005 8.08594L16.0005 15Z" fill="#2094FF"/>
<path d="M30 23.0859L26 29.9999L17.9999 29.9999L13.9999 23.0859L17.9999 16.1719L26 16.1719L30 23.0859Z" fill="#2094FF"/>
<path d="M33.9995 8.51452L36.0247 8.31807C36.1466 8.99628 36.3927 9.49441 36.763 9.81246C37.138 10.1305 37.642 10.2895 38.2748 10.2895C38.9452 10.2895 39.4492 10.1492 39.7867 9.86859C40.1289 9.58328 40.3 9.25119 40.3 8.87233C40.3 8.62911 40.2273 8.42331 40.082 8.25493C39.9414 8.08187 39.6929 7.9322 39.3366 7.80591C39.0929 7.72172 38.5374 7.57205 37.6701 7.3569C36.5544 7.08094 35.7715 6.74183 35.3215 6.33959C34.6886 5.77364 34.3722 5.08374 34.3722 4.2699C34.3722 3.74604 34.5199 3.25727 34.8152 2.80357C35.1152 2.3452 35.5442 1.99674 36.102 1.7582C36.6646 1.51966 37.342 1.40039 38.1342 1.40039C39.4281 1.40039 40.4008 1.68337 41.0524 2.24932C41.7087 2.81527 42.0533 3.57064 42.0861 4.51545L40.0047 4.60666C39.9156 4.07813 39.7234 3.69927 39.4281 3.47008C39.1374 3.23622 38.6991 3.11929 38.1131 3.11929C37.5084 3.11929 37.0349 3.24324 36.6927 3.49113C36.4724 3.65016 36.3622 3.86297 36.3622 4.12958C36.3622 4.3728 36.4653 4.58094 36.6716 4.75399C36.9341 4.97383 37.5717 5.20301 38.5842 5.44155C39.5968 5.68009 40.3445 5.92799 40.8274 6.18524C41.3149 6.43781 41.6946 6.78627 41.9665 7.23061C42.2431 7.67027 42.3814 8.21517 42.3814 8.86531C42.3814 9.45465 42.2173 10.0066 41.8892 10.5211C41.561 11.0356 41.0969 11.4191 40.4969 11.6717C39.8969 11.9196 39.1491 12.0435 38.2538 12.0435C36.9505 12.0435 35.9497 11.7442 35.2512 11.1455C34.5527 10.5421 34.1355 9.66513 33.9995 8.51452Z" fill="black"/>
<path d="M44.1042 11.8611V1.57579H47.2193L49.0898 8.59169L50.9391 1.57579H54.0612V11.8611H52.1275V3.76475L50.0812 11.8611H48.0772L46.038 3.76475V11.8611H44.1042Z" fill="black"/>
<path d="M65.4246 11.8611H63.1604L62.2603 9.52481H58.1397L57.2888 11.8611H55.0809L59.096 1.57579H61.297L65.4246 11.8611ZM61.5923 7.79188L60.1719 3.97523L58.7796 7.79188H61.5923Z" fill="black"/>
<path d="M66.5427 11.8611V1.57579H70.9235C72.0252 1.57579 72.8244 1.66933 73.3214 1.85642C73.823 2.03884 74.2238 2.36625 74.5238 2.83865C74.8238 3.31106 74.9738 3.85128 74.9738 4.45933C74.9738 5.23108 74.7465 5.86952 74.2917 6.37467C73.837 6.87514 73.1573 7.19085 72.2525 7.32182C72.7026 7.58374 73.0729 7.8714 73.3635 8.18477C73.6589 8.49815 74.055 9.05474 74.5519 9.85456L75.8106 11.8611H73.3214L71.8165 9.62303C71.2821 8.82322 70.9165 8.32041 70.7196 8.11461C70.5227 7.90414 70.3141 7.76148 70.0938 7.68664C69.8734 7.60713 69.5242 7.56737 69.046 7.56737H68.6241V11.8611H66.5427ZM68.6241 5.92565H70.1641C71.1626 5.92565 71.7861 5.88355 72.0345 5.79936C72.283 5.71517 72.4775 5.57018 72.6182 5.36438C72.7588 5.15858 72.8291 4.90133 72.8291 4.59263C72.8291 4.24651 72.7354 3.96821 72.5479 3.75774C72.365 3.54258 72.1048 3.40694 71.7673 3.35081C71.5986 3.32743 71.0923 3.31573 70.2485 3.31573H68.6241V5.92565Z" fill="black"/>
<path d="M79.2632 11.8611V3.31573H76.2044V1.57579H84.3964V3.31573H81.3446V11.8611H79.2632Z" fill="black"/>
<path d="M34.4988 28.4249V18.1396H37.6139L39.4843 25.1555L41.3337 18.1396H44.4558V28.4249H42.5221V20.3285L40.4758 28.4249H38.4717L36.4325 20.3285V28.4249H34.4988Z" fill="black"/>
<path d="M55.8192 28.4249H53.555L52.6549 26.0886H48.5342L47.6834 28.4249H45.4754L49.4906 18.1396H51.6915L55.8192 28.4249ZM51.9869 24.3557L50.5664 20.539L49.1741 24.3557H51.9869Z" fill="black"/>
<path d="M63.526 24.6433L65.5442 25.2818C65.2348 26.4043 64.7191 27.2392 63.9972 27.7864C63.2799 28.329 62.3681 28.6003 61.2618 28.6003C59.893 28.6003 58.7679 28.1349 57.8865 27.2041C57.0052 26.2687 56.5646 24.9918 56.5646 23.3734C56.5646 21.6615 57.0076 20.3332 57.8936 19.3884C58.7796 18.4389 59.9445 17.9642 61.3884 17.9642C62.6494 17.9642 63.6737 18.336 64.4613 19.0797C64.9301 19.5194 65.2817 20.1508 65.5161 20.974L63.4557 21.4651C63.3338 20.9319 63.0784 20.5109 62.6893 20.2022C62.3049 19.8935 61.8361 19.7392 61.2829 19.7392C60.5188 19.7392 59.8976 20.0128 59.4195 20.5601C58.946 21.1073 58.7093 21.9936 58.7093 23.2191C58.7093 24.5194 58.9437 25.4455 59.4124 25.9974C59.8812 26.5493 60.4907 26.8253 61.2407 26.8253C61.7939 26.8253 62.2697 26.6499 62.6682 26.2991C63.0666 25.9483 63.3526 25.3964 63.526 24.6433Z" fill="black"/>
<path d="M67.3443 28.4249V18.1396H69.4257V22.1877H73.5042V18.1396H75.5856V28.4249H73.5042V23.9277H69.4257V28.4249H67.3443Z" fill="black"/>
<path d="M77.6811 28.4249V18.1396H79.7625V28.4249H77.6811Z" fill="black"/>
<path d="M81.7736 28.4249V18.1396H83.7987L88.0178 25.0081V18.1396H89.9516V28.4249H87.8631L83.7073 21.7177V28.4249H81.7736Z" fill="black"/>
<path d="M92.1595 28.4249V18.1396H99.8031V19.8795H94.241V22.1597H99.4164V23.8926H94.241V26.692H100V28.4249H92.1595Z" fill="black"/>
</svg>
