<svg width="96" height="32" viewBox="0 0 96 32" fill="none" xmlns="http://www.w3.org/2000/svg">
<path d="M95.6205 6.93661H63.6801V0.646217C63.6807 0.561548 63.6648 0.477608 63.6335 0.399229C63.6022 0.32085 63.556 0.249579 63.4976 0.189518C63.4392 0.129457 63.3698 0.0817927 63.2934 0.0492673C63.2169 0.016742 63.1349 -1.71741e-06 63.0521 1.32126e-10H32.9518C32.869 -1.71741e-06 32.787 0.016742 32.7105 0.0492673C32.6341 0.0817927 32.5647 0.129457 32.5063 0.189518C32.4479 0.249579 32.4017 0.32085 32.3704 0.399229C32.3391 0.477608 32.3232 0.561548 32.3238 0.646217V6.93661H9.43149C9.08349 6.93661 8.65948 7.2229 8.48348 7.58282L0.0793819 24.4172C-0.10062 24.7771 0.0353814 25.0593 0.387386 25.0593H32.3198V31.3579C32.3198 31.7096 32.5998 32 32.9478 32H63.0481C63.3961 32 63.6761 31.7137 63.6761 31.3579V25.0593H86.5684C86.9164 25.0593 87.3404 24.773 87.5204 24.4172L95.9205 7.58282C96.1005 7.22699 95.9645 6.93661 95.6165 6.93661M85.6404 11.0102L80.6643 20.9775H59.7361V27.9632H36.2798V20.9775H10.3795L15.3596 11.0102H36.2878V4.02863H59.7441V11.0102H85.6404Z" fill="white"/>
</svg>
