<svg width="60" height="60" viewBox="0 0 60 60" fill="none" xmlns="http://www.w3.org/2000/svg">
<path d="M29.8975 0.000184531C13.3301 0.0576842 -0.0573151 13.5376 0.000184531 30.105C0.0576842 46.6724 13.5376 60.0548 30.1025 59.9998C46.6699 59.9423 60.0573 46.4649 59.9998 29.8975C59.9423 13.3301 46.4649 -0.0573151 29.8975 0.000184531ZM30 5.33515C33.2403 5.32645 36.4501 5.96054 39.4437 7.20071C42.4372 8.44087 45.1551 10.2625 47.4399 12.5601C49.7376 14.8448 51.5593 17.5627 52.7995 20.5563C54.0397 23.5498 54.6737 26.7597 54.6649 30C54.6737 33.2403 54.0397 36.4502 52.7995 39.4437C51.5593 42.4373 49.7376 45.1552 47.4399 47.4399C45.1551 49.7375 42.4372 51.5591 39.4437 52.7993C36.4501 54.0395 33.2403 54.6735 30 54.6649C26.7597 54.6734 23.55 54.0393 20.5564 52.7991C17.5629 51.5589 14.845 49.7374 12.5601 47.4399C10.2624 45.1552 8.44069 42.4373 7.20051 39.4437C5.96034 36.4502 5.32632 33.2403 5.33515 30C5.32632 26.7597 5.96034 23.5498 7.20051 20.5563C8.44069 17.5627 10.2624 14.8448 12.5601 12.5601C14.845 10.2626 17.5629 8.44106 20.5564 7.2009C23.55 5.96074 26.7597 5.32659 30 5.33515ZM30.285 8.32013C28.1488 8.31839 26.0238 8.62918 23.9775 9.24263C23.8103 9.28629 23.656 9.36945 23.5275 9.48513C23.4307 9.57729 23.371 9.70186 23.36 9.83512C23.3425 10.0876 23.495 10.3276 23.7175 10.5176C25.66 12.1801 28.2675 14.6701 30.11 17.7576C29.0775 17.7776 28.2625 17.2076 27.56 16.5326C25.4061 14.5084 23.0095 12.7593 20.4251 11.3251C20.0526 11.1176 19.6501 11.0201 19.2576 11.2451C17.1196 12.441 15.219 14.0187 13.6501 15.9001C13.4801 16.0976 13.4376 16.3026 13.5001 16.4751C13.5741 16.6415 13.7066 16.775 13.8726 16.8501C15.7976 17.8751 18.8076 19.8101 21.5876 22.315C21.314 22.4875 20.9853 22.55 20.6676 22.49C20.2226 22.425 19.6751 22.2175 19.0201 21.875C16.842 20.7509 14.5408 19.8835 12.1626 19.2901C11.7301 19.1776 11.2476 19.3026 11.0126 19.7051C9.81513 21.7876 8.98763 24.275 8.60013 26.7975C8.56277 27.0536 8.62793 27.314 8.78146 27.5223C8.93499 27.7306 9.16449 27.8699 9.42013 27.91C11.5826 28.29 14.5851 28.985 17.2026 30.6925C19.8176 32.395 22.0476 35.1 22.685 39.5249C22.7115 39.6866 22.6944 39.8525 22.6355 40.0054C22.5767 40.1583 22.4781 40.2927 22.35 40.3949C22.1025 40.5849 21.7401 40.6449 21.3001 40.4399L17.3951 38.6074C17.2435 38.5312 17.0772 38.4886 16.9076 38.4824H10.7651C10.2951 38.4824 9.94012 38.7124 9.79513 39.0424C9.65013 39.3724 9.71513 39.7924 10.0201 40.1424C11.4951 41.8374 12.8451 43.6674 14.0001 45.6074C14.0502 45.698 14.1243 45.773 14.2143 45.8242C14.3043 45.8753 14.4066 45.9007 14.5101 45.8974H17.1926C17.3862 45.8991 17.5766 45.8472 17.7426 45.7474L20.2726 44.2674C20.4026 44.1874 20.5301 44.1899 20.7151 44.1899H40.9249C41.0374 44.1899 41.1349 44.2249 41.2024 44.2849C41.2375 44.3151 41.2654 44.3528 41.284 44.3952C41.3026 44.4376 41.3114 44.4836 41.3099 44.5299V45.5249C41.3099 45.9499 41.6949 46.2749 42.1124 46.2099C44.6189 45.8091 46.9476 44.6657 48.7974 42.9274C48.8766 42.8535 48.9397 42.7641 48.9829 42.6648C49.026 42.5654 49.0483 42.4582 49.0483 42.3499C49.0483 42.2416 49.026 42.1344 48.9829 42.0351C48.9397 41.9358 48.8766 41.8463 48.7974 41.7724C46.9485 40.0342 44.6207 38.8908 42.1149 38.4899C42.0156 38.4745 41.9141 38.4806 41.8173 38.508C41.7206 38.5354 41.6309 38.5834 41.5545 38.6487C41.478 38.714 41.4166 38.7951 41.3744 38.8863C41.3321 38.9776 41.3102 39.0769 41.3099 39.1774V40.0874C41.3067 40.2052 41.2665 40.3189 41.1949 40.4124C41.1249 40.5024 41.0349 40.5574 40.9374 40.5574C40.7399 40.5574 40.5449 40.5624 40.3499 40.5574C40.0424 40.5524 39.8824 40.3774 39.7899 40.1249C39.7044 39.8637 39.6958 39.5835 39.7649 39.3174C41.2549 33.9725 41.6199 30.7225 41.6024 28.355C41.5849 25.8475 41.5199 23.33 40.3874 20.0126C39.2999 16.8326 38.2874 13.6876 33.02 8.91513C32.6758 8.59251 32.2286 8.4021 31.7575 8.37763C31.2675 8.34116 30.7763 8.32031 30.285 8.32013ZM34.105 32.58C34.835 32.6107 35.5248 32.9222 36.0305 33.4496C36.5362 33.977 36.8185 34.6793 36.8185 35.41C36.8185 36.1406 36.5362 36.843 36.0305 37.3703C35.5248 37.8977 34.835 38.2093 34.105 38.2399C33.3544 38.2399 32.6346 37.9418 32.1039 37.4111C31.5732 36.8803 31.275 36.1605 31.275 35.41C31.275 34.6594 31.5732 33.9396 32.1039 33.4089C32.6346 32.8781 33.3544 32.58 34.105 32.58Z" fill="white"/>
</svg>
