<svg width="60" height="61" viewBox="0 0 60 61" fill="none" xmlns="http://www.w3.org/2000/svg">
<path d="M52.9832 15.657C54.2082 18.5328 54.8019 21.7745 54.8019 25.5672C54.8019 27.6164 54.6315 29.8008 54.2858 32.2458C53.5694 37.2811 51.6605 42.5419 49.9019 46.0089C49.6163 46.5676 49.3883 46.9383 48.9299 47.3442C48.1283 48.0506 47.4218 48.226 47.1613 48.0732C46.9509 47.9479 46.8331 47.3166 46.8757 46.3872C46.9108 45.5956 47.0987 45.0094 47.3867 44.0725C48.7338 39.6333 49.7388 35.0975 50.3929 30.5048C51.3574 23.8312 51.3198 17.8289 49.8894 14.1714C49.7448 13.796 49.56 13.4374 49.3382 13.1017C49.1829 12.8763 49.0727 12.7611 49.0727 12.7611C46.1142 9.7975 38.1253 8.31197 30.134 8.31197C22.1427 8.31197 14.1564 9.7975 11.2004 12.7611C11.2004 12.7611 11.0876 12.8738 10.9348 13.1017C10.7105 13.4354 10.5248 13.7934 10.3812 14.1689C8.94827 17.8264 8.9132 23.8312 9.87767 30.5048C10.529 35.0315 11.5611 39.8238 12.9514 44.2929C13.1919 45.062 13.3472 45.5856 13.3848 46.3972C13.4249 47.3216 13.3097 47.9504 13.0992 48.0757C12.8387 48.226 12.1248 48.0506 11.3206 47.3366C10.7444 46.8231 10.4563 46.3221 10.0931 45.5806C8.38963 42.111 6.60348 37.0707 5.91708 32.2458C5.58747 30.0346 5.41502 27.8028 5.40103 25.5672C5.40103 21.7745 5.99724 18.5353 7.21974 15.662C8.13912 13.5076 9.68227 11.7039 11.6839 10.4438C16.603 7.33262 22.224 5.50491 28.0322 5.12797C28.712 5.0863 29.3929 5.06458 30.0739 5.06284H30.124C30.8104 5.06284 31.4968 5.08789 32.1732 5.12797C37.8899 5.47368 43.5439 7.31494 48.5191 10.4438C50.5042 11.6864 52.0619 13.5038 52.9832 15.657ZM41.0513 52.0463C40.8309 52.0939 40.147 52.2542 39.4681 52.4396C38.8593 52.6074 38.2581 52.7402 37.9725 52.7978C35.3998 53.2822 32.787 53.5213 30.1691 53.5118H30.099C27.3007 53.5118 24.6453 53.2537 22.298 52.7978C21.8271 52.7013 21.3592 52.5902 20.8952 52.4646C20.3934 52.3306 19.8889 52.207 19.3821 52.0939C18.3349 51.8559 17.388 51.6855 17.3354 51.8859C17.2728 52.1189 17.7412 52.6074 18.3399 53.0683C18.4802 53.1736 18.8284 53.4191 19.2343 53.6195C19.61 53.8023 20.0359 53.9401 20.2012 53.9952C22.9519 54.8846 26.0782 55.2528 30.0739 55.2528H30.129C34.0445 55.2528 37.1283 54.8971 39.8413 54.0428C40.7707 53.7497 41.3194 53.5143 41.9782 52.9907C42.5293 52.5548 42.9427 52.1064 42.8825 51.8884C42.8324 51.7006 42.0108 51.8358 41.0513 52.0463ZM34.7685 26.211C34.4052 24.1819 33.9669 22.6237 33.4708 21.5766L33.4658 21.5665H33.4132L31.7047 21.5515H31.6797L31.612 29.0618H35.1843L35.1818 29.0368C35.1818 29.0243 35.0415 27.7291 34.7685 26.211ZM49.1979 30.4371C48.3913 36.0185 46.9934 42.0183 45.0395 47.2239C44.7138 48.1007 44.4182 48.4264 43.7117 48.9775C41.889 50.261 39.8124 51.1391 37.6218 51.5528C35.3747 51.9911 32.8421 52.2341 30.1716 52.2341H30.099C27.6003 52.2447 25.1065 52.0165 22.6512 51.5528C20.4589 51.1398 18.3805 50.2617 16.5563 48.9775C15.8499 48.4264 15.5568 48.1007 15.2361 47.2239C13.2771 42.0183 11.8793 36.0185 11.0751 30.4371C10.1407 23.9815 10.1983 18.2949 11.526 14.9004C11.6939 14.4746 11.8717 14.1689 12.002 13.976C12.1172 13.8132 12.1974 13.7255 12.1974 13.7255C14.8729 11.0451 22.3682 9.58707 30.134 9.58707C37.9024 9.58707 45.3977 11.0451 48.0706 13.728C48.0706 13.728 48.1508 13.8107 48.266 13.9785C48.3963 14.1689 48.5767 14.472 48.742 14.9004C50.0722 18.2949 50.1298 23.9815 49.1979 30.4371ZM22.2429 18.9512L15.5242 18.9136L16.1931 42.3039L19.0038 42.3339L18.9637 31.6872H21.5039V28.9391H18.9637V21.6943H22.2454V18.9487L22.2429 18.9512ZM26.9425 18.9011L23.523 18.9086L23.9765 42.3314H26.8749L26.9425 18.9011ZM35.5801 18.9362H28.7362L29.0067 42.3189H31.7423L31.7649 31.7423H35.3171L35.3221 31.7598C35.6428 33.7564 35.6678 42.2087 35.6678 42.2938V42.3314H38.3308L38.3533 41.1315C38.4735 35.0691 38.679 24.9259 35.5801 18.9362ZM46.4022 18.9036L38.0251 18.9362V21.6342H40.5252V21.6592L40.42 42.3314H43.2558L43.9447 21.6342H46.4022V18.9036ZM59.9975 30.0614C59.9975 46.6377 46.54 60.1227 29.9962 60.1227C13.4575 60.1227 0 46.6377 0 30.0614C0 13.485 13.4575 0 29.9987 0C46.5425 0 59.9975 13.485 59.9975 30.0614ZM59.1708 30.0413C59.1583 13.9309 46.0766 0.826688 29.9937 0.826688C14.0712 0.826688 1.08972 13.6854 0.834203 29.5879C1.18925 28.7749 1.78797 28.0921 2.5477 27.6339C4.18855 26.6619 4.63697 24.1643 4.78477 22.6713L4.81483 22.516C4.71713 23.5055 4.63947 24.495 4.63947 25.5672C4.63947 27.6515 4.81483 29.871 5.16555 32.351C6.19765 39.6159 9.70732 47.3993 11.7715 49.7816L11.8868 49.9069L12.3678 50.4129L12.3853 50.428C17.4206 54.5539 22.0475 56.0144 30.0739 56.0144H30.129C38.1529 56.0144 42.7798 54.5539 47.8151 50.428L47.8377 50.4129L48.3011 49.9194L48.4314 49.7791C50.5006 47.3893 54.0078 39.6159 55.0399 32.351C55.3906 29.871 55.5634 27.6515 55.5634 25.5672C55.5634 24.4299 55.5108 23.3376 55.4031 22.288L55.4181 22.303C55.5685 23.7986 56.3676 27.6665 57.9107 28.7813C58.4368 29.162 58.8502 29.5754 59.1708 30.0413Z" fill="white"/>
</svg>
