<svg width="68" height="53" viewBox="0 0 68 53" fill="none" xmlns="http://www.w3.org/2000/svg">
<path d="M67.4081 29.0413C67.0568 29.0185 60.2824 28.5856 60.2427 28.5799C60.3035 27.8504 60.3347 27.1187 60.3362 26.3867C60.2399 11.7183 48.3372 -0.0962492 33.7458 0.000591099C27.8184 0.0393893 22.0762 2.08126 17.4429 5.79778C12.8095 9.5143 9.55431 14.6895 8.20082 20.4909H2.37275C2.21678 20.4908 2.06289 20.5268 1.92291 20.5959C1.78292 20.665 1.66057 20.7655 1.56526 20.8896L0.108948 22.9688C-0.157382 23.2878 0.0976145 23.8119 0.516941 23.7948C0.924935 23.8176 7.55767 24.2278 7.68517 24.2391C7.62332 24.9695 7.59118 25.7021 7.58883 26.4351C7.58763 32.9634 9.97818 39.2635 14.3041 44.1325C18.63 49.0015 24.5882 52.0984 31.0411 52.8318C37.494 53.5652 43.9896 51.8838 49.2877 48.1086C54.5857 44.3335 58.3152 38.729 59.7639 32.3652H65.5891C65.7452 32.3658 65.8993 32.3302 66.0394 32.261C66.1795 32.1918 66.3017 32.091 66.3966 31.9664L67.8954 29.8929C68.1702 29.534 67.8671 28.9558 67.4081 29.0413ZM33.9101 2.93143C40.1044 2.93746 46.0433 5.41339 50.4238 9.81598C54.8044 14.2186 57.2687 20.1882 57.2762 26.4152C57.2762 27.0817 57.2394 27.7396 57.1912 28.3919L37.6585 27.1472L46.1357 21.2912C46.4871 21.0662 46.3086 20.4709 45.8892 20.4852H11.3089C12.6188 15.4608 15.5465 11.0137 19.6352 7.83819C23.7238 4.66264 28.7433 2.93728 33.9101 2.93143ZM33.9101 49.9047C27.7161 49.8964 21.7782 47.4188 17.3989 43.0153C13.0195 38.6118 10.5564 32.6419 10.5496 26.4152C10.5496 25.7487 10.5496 25.0908 10.6375 24.4385L30.173 25.6633L21.7128 31.5164C21.3615 31.75 21.5428 32.3424 21.9678 32.3282H56.5198C55.2121 37.3572 52.2844 41.8093 48.194 44.9891C44.1036 48.1689 39.0808 49.8974 33.9101 49.9047Z" fill="white"/>
</svg>
