<svg width="24" height="23" viewBox="0 0 24 23" fill="none" xmlns="http://www.w3.org/2000/svg">
<path d="M15.68 11.5C15.68 12.2278 15.4642 12.9393 15.0598 13.5445C14.6554 14.1497 14.0807 14.6213 13.4083 14.8999C12.7358 15.1784 11.9959 15.2513 11.2821 15.1093C10.5682 14.9673 9.9125 14.6168 9.39785 14.1022C8.88319 13.5875 8.5327 12.9318 8.39071 12.2179C8.24872 11.5041 8.32159 10.7642 8.60012 10.0917C8.87865 9.41929 9.35033 8.84456 9.9555 8.44019C10.5607 8.03583 11.2722 7.82 12 7.82C12.9751 7.82303 13.9093 8.21172 14.5988 8.9012C15.2883 9.59068 15.677 10.5249 15.68 11.5ZM23.5 6.44V16.56C23.5 18.268 22.8215 19.906 21.6138 21.1138C20.406 22.3215 18.768 23 17.06 23H6.94C5.23201 23 3.59397 22.3215 2.38623 21.1138C1.1785 19.906 0.5 18.268 0.5 16.56V6.44C0.5 4.73201 1.1785 3.09397 2.38623 1.88623C3.59397 0.678498 5.23201 0 6.94 0H17.06C18.768 0 20.406 0.678498 21.6138 1.88623C22.8215 3.09397 23.5 4.73201 23.5 6.44ZM17.52 11.5C17.52 10.4082 17.1963 9.34101 16.5897 8.43325C15.9832 7.52549 15.1211 6.81798 14.1124 6.40019C13.1038 5.98239 11.9939 5.87308 10.9231 6.08607C9.85233 6.29906 8.86876 6.82478 8.09677 7.59677C7.32478 8.36876 6.79906 9.35233 6.58607 10.4231C6.37308 11.4939 6.48239 12.6038 6.90019 13.6124C7.31798 14.6211 8.02549 15.4832 8.93325 16.0897C9.84101 16.6963 10.9082 17.02 12 17.02C13.464 17.02 14.868 16.4384 15.9032 15.4032C16.9384 14.368 17.52 12.964 17.52 11.5ZM19.36 5.52C19.36 5.24706 19.2791 4.98025 19.1274 4.75331C18.9758 4.52637 18.7603 4.34949 18.5081 4.24505C18.2559 4.1406 17.9785 4.11327 17.7108 4.16652C17.4431 4.21976 17.1972 4.3512 17.0042 4.54419C16.8112 4.73719 16.6798 4.98308 16.6265 5.25077C16.5733 5.51847 16.6006 5.79594 16.705 6.0481C16.8095 6.30027 16.9864 6.51579 17.2133 6.66743C17.4403 6.81907 17.7071 6.9 17.98 6.9C18.346 6.9 18.697 6.75461 18.9558 6.49581C19.2146 6.23701 19.36 5.886 19.36 5.52Z" fill="black"/>
</svg>
