<svg width="23" height="23" viewBox="0 0 23 23" fill="none" xmlns="http://www.w3.org/2000/svg">
<path d="M15.0339 0H7.97755C1.53295 0 0 1.53295 0 7.96605V15.0224C0 21.4659 1.52145 23 7.96605 23H15.0224C21.4659 23 23 21.4785 23 15.0339V7.97755C23 1.53295 21.4785 0 15.0339 0ZM18.5679 16.4105H16.8901C16.2553 16.4105 16.0644 15.8965 14.9258 14.7579C13.9323 13.8 13.5125 13.6804 13.2606 13.6804C12.9134 13.6804 12.8179 13.7758 12.8179 14.2554V15.7642C12.8179 16.1724 12.6856 16.4116 11.6196 16.4116C10.585 16.3421 9.58171 16.0278 8.69239 15.4946C7.80306 14.9613 7.05314 14.2244 6.5044 13.3446C5.20164 11.7231 4.29518 9.82 3.8571 7.78665C3.8571 7.5348 3.95255 7.3071 4.4321 7.3071H6.1088C6.54005 7.3071 6.6953 7.49915 6.86435 7.9419C7.67855 10.3385 9.06775 12.4223 9.63125 12.4223C9.84745 12.4223 9.94175 12.3268 9.94175 11.7875V9.3196C9.87045 8.19375 9.27245 8.0983 9.27245 7.6912C9.28013 7.58382 9.32934 7.48366 9.40963 7.41196C9.48992 7.34025 9.59499 7.30264 9.70255 7.3071H12.3384C12.6983 7.3071 12.8179 7.4865 12.8179 7.91775V11.2481C12.8179 11.6081 12.9731 11.7277 13.0813 11.7277C13.2975 11.7277 13.4642 11.6081 13.8598 11.2125C14.7095 10.1763 15.4037 9.02184 15.9206 7.7855C15.9734 7.63699 16.0734 7.50985 16.2053 7.42347C16.3371 7.33709 16.4936 7.29622 16.6509 7.3071H18.3287C18.8312 7.3071 18.9382 7.55895 18.8312 7.91775C18.2212 9.28444 17.4663 10.5818 16.5795 11.7875C16.399 12.0635 16.3265 12.2072 16.5795 12.5304C16.7463 12.7822 17.334 13.2733 17.7295 13.7402C18.3044 14.3136 18.7818 14.9771 19.1429 15.7044C19.2866 16.1713 19.0463 16.4105 18.5679 16.4105Z" fill="black"/>
</svg>
