<svg width="24" height="23" viewBox="0 0 24 23" fill="none" xmlns="http://www.w3.org/2000/svg">
<path d="M12 0C5.652 0 0.5 5.152 0.5 11.5C0.5 17.848 5.652 23 12 23C18.348 23 23.5 17.848 23.5 11.5C23.5 5.152 18.348 0 12 0ZM17.336 7.82C17.1635 9.637 16.416 14.053 16.0365 16.0885C15.8755 16.951 15.5535 17.2385 15.2545 17.273C14.5875 17.3305 14.0815 16.836 13.4375 16.4105C12.4255 15.7435 11.8505 15.3295 10.873 14.6855C9.7345 13.938 10.4705 13.524 11.126 12.857C11.2985 12.6845 14.2425 10.005 14.3 9.7635C14.308 9.72692 14.3069 9.68895 14.2969 9.65287C14.2869 9.6168 14.2682 9.58372 14.2425 9.5565C14.1735 9.499 14.0815 9.522 14.001 9.5335C13.8975 9.5565 12.2875 10.626 9.148 12.742C8.688 13.0525 8.274 13.2135 7.906 13.202C7.492 13.1905 6.71 12.972 6.1235 12.7765C5.399 12.5465 4.8355 12.42 4.8815 12.0175C4.9045 11.8105 5.192 11.6035 5.7325 11.385C9.0905 9.9245 11.3215 8.9585 12.437 8.4985C15.634 7.1645 16.2895 6.9345 16.7265 6.9345C16.8185 6.9345 17.037 6.9575 17.175 7.0725C17.29 7.1645 17.3245 7.291 17.336 7.383C17.3245 7.452 17.3475 7.659 17.336 7.82Z" fill="black"/>
</svg>
