<svg width="94" height="30" viewBox="0 0 94 30" fill="none" xmlns="http://www.w3.org/2000/svg">
<path fill-rule="evenodd" clip-rule="evenodd" d="M25.1684 5.45455V13.6364C25.1684 21.2045 19.7991 28.2818 12.5842 30C5.36925 28.2818 0 21.2045 0 13.6364V5.45455L12.5842 0L25.1684 5.45455ZM17.9534 8.18182L20.9736 15V20.4545C20.9736 21.2045 20.3444 21.8182 19.5754 21.8182H18.1772C17.4081 21.8182 16.7789 21.2045 16.7789 20.4545V19.0909H8.38946V20.4545C8.38946 21.2045 7.76025 21.8182 6.99122 21.8182H5.59297C4.82394 21.8182 4.19473 21.2045 4.19473 20.4545V15L6.99122 8.18182C7.27086 7.39091 8.05388 6.81818 8.97672 6.81818H15.9679C16.8908 6.81818 17.6738 7.39091 17.9534 8.18182Z" fill="#EC5B2D"/>
<path d="M15.9679 8.86364L18.1772 13.6364H6.99122L8.97672 8.86364H15.9679Z" fill="#EC5B2D"/>
<path d="M8.38946 15C7.62042 15 6.99122 15.6136 6.99122 16.3636C6.99122 17.1136 7.62042 17.7273 8.38946 17.7273C9.15849 17.7273 9.7877 17.1136 9.7877 16.3636C9.7877 15.6136 9.15849 15 8.38946 15Z" fill="white"/>
<path d="M16.7789 15C16.0099 15 15.3807 15.6136 15.3807 16.3636C15.3807 17.1136 16.0099 17.7273 16.7789 17.7273C17.548 17.7273 18.1772 17.1136 18.1772 16.3636C18.1772 15.6136 17.548 15 16.7789 15Z" fill="white"/>
<path d="M40.0363 1.78404C39.1001 1.78404 38.3928 1.9927 37.9144 2.41002C37.4359 2.82733 37.1967 3.44288 37.1967 4.25665V5.19562H41.9554V6.91706H37.1967V11.1111H35.1684V4.25665C35.1684 2.93166 35.5896 1.89358 36.4322 1.14241C37.2851 0.380803 38.4552 0 39.9427 0C40.5668 0 41.1492 0.0678144 41.6901 0.203443C42.231 0.339072 42.7043 0.537298 43.1099 0.798122L42.4702 2.45696C41.8253 2.00835 41.014 1.78404 40.0363 1.78404Z" fill="white"/>
<path d="M52.2697 2.7543V11.1111H50.413V10.0313C50.0906 10.4278 49.6901 10.7251 49.2116 10.9233C48.7436 11.1215 48.2235 11.2207 47.6514 11.2207C46.8401 11.2207 46.112 11.0433 45.4671 10.6886C44.8326 10.3339 44.3333 9.83307 43.9693 9.18623C43.6156 8.53938 43.4388 7.78821 43.4388 6.93271C43.4388 6.0772 43.6156 5.33125 43.9693 4.69484C44.3333 4.04799 44.8326 3.54721 45.4671 3.19249C46.112 2.83777 46.8401 2.66041 47.6514 2.66041C48.1923 2.66041 48.6864 2.7543 49.1336 2.9421C49.5913 3.12989 49.9865 3.40636 50.3194 3.77152V2.7543H52.2697ZM47.8698 9.54617C48.5875 9.54617 49.1804 9.30621 49.6485 8.82629C50.1166 8.34638 50.3506 7.71518 50.3506 6.93271C50.3506 6.15024 50.1166 5.51904 49.6485 5.03912C49.1804 4.55921 48.5875 4.31925 47.8698 4.31925C47.1521 4.31925 46.5592 4.55921 46.0912 5.03912C45.6335 5.51904 45.4047 6.15024 45.4047 6.93271C45.4047 7.71518 45.6335 8.34638 46.0912 8.82629C46.5592 9.30621 47.1521 9.54617 47.8698 9.54617Z" fill="white"/>
<path d="M57.3958 11.2207C56.7197 11.2207 56.0592 11.132 55.4143 10.9546C54.7694 10.7773 54.2545 10.5529 53.8696 10.2817L54.6186 8.79499C54.993 9.04538 55.4403 9.24883 55.9604 9.40532C56.4908 9.55138 57.0109 9.62441 57.5206 9.62441C58.6855 9.62441 59.268 9.31664 59.268 8.7011C59.268 8.40897 59.1172 8.20553 58.8156 8.09077C58.5243 7.97601 58.0511 7.86646 57.3958 7.76213C56.7093 7.6578 56.1476 7.53782 55.7107 7.40219C55.2843 7.26656 54.9098 7.03182 54.5874 6.69797C54.2753 6.35368 54.1193 5.87898 54.1193 5.27387C54.1193 4.48096 54.4469 3.84977 55.1022 3.38028C55.7679 2.90037 56.6625 2.66041 57.7858 2.66041C58.3579 2.66041 58.93 2.72822 59.5021 2.86385C60.0742 2.98905 60.5422 3.16119 60.9063 3.38028L60.1574 4.86698C59.4501 4.44966 58.6543 4.241 57.7702 4.241C57.1981 4.241 56.7613 4.32968 56.4596 4.50704C56.1684 4.67397 56.0228 4.89828 56.0228 5.17997C56.0228 5.49296 56.1788 5.71727 56.4908 5.8529C56.8133 5.97809 57.3073 6.09807 57.973 6.21283C58.6387 6.31716 59.1848 6.43714 59.6113 6.57277C60.0377 6.7084 60.4018 6.93792 60.7034 7.26135C61.0155 7.58477 61.1715 8.04382 61.1715 8.6385C61.1715 9.42097 60.8335 10.0469 60.1574 10.5164C59.4813 10.9859 58.5607 11.2207 57.3958 11.2207Z" fill="white"/>
<path d="M67.5318 10.6573C67.3029 10.8451 67.0221 10.9859 66.6892 11.0798C66.3668 11.1737 66.0235 11.2207 65.6595 11.2207C64.7441 11.2207 64.0368 10.9807 63.5376 10.5008C63.0383 10.0209 62.7887 9.32186 62.7887 8.40376V0.907669H64.7389V2.8169H66.9701V4.38185H64.7389V8.35681C64.7389 8.76369 64.8378 9.07668 65.0354 9.29578C65.2434 9.50443 65.5295 9.60876 65.8935 9.60876C66.3304 9.60876 66.6944 9.494 66.9857 9.26448L67.5318 10.6573Z" fill="white"/>
<path d="M47.463 18.7793C48.7423 18.7793 49.7409 19.1549 50.4586 19.9061C51.1763 20.6468 51.5352 21.7162 51.5352 23.1142V29.8905H49.5069V23.1925C49.5069 22.3266 49.278 21.6745 48.8204 21.2363C48.3731 20.7877 47.7854 20.5634 47.0573 20.5634C46.246 20.5634 45.5959 20.7929 45.107 21.252C44.6285 21.711 44.3893 22.4152 44.3893 23.3646V29.8905H42.361V23.1925C42.361 22.3161 42.1478 21.6588 41.7213 21.2207C41.3053 20.7825 40.7332 20.5634 40.0051 20.5634C39.1834 20.5634 38.5229 20.7981 38.0236 21.2676C37.5347 21.7267 37.2903 22.4257 37.2903 23.3646V29.8905H35.262V18.9358H37.2279V20.3756C37.5607 19.8644 38.0132 19.4731 38.5853 19.2019C39.1573 18.9202 39.8178 18.7793 40.5668 18.7793C41.3365 18.7793 42.0074 18.9254 42.5794 19.2175C43.1515 19.5097 43.5832 19.9218 43.8744 20.4538C44.2385 19.9218 44.7326 19.5097 45.3567 19.2175C45.9911 18.9254 46.6932 18.7793 47.463 18.7793Z" fill="white"/>
<path d="M57.926 30C57.0835 30 56.3242 29.8174 55.6481 29.4523C54.972 29.0871 54.4415 28.5811 54.0566 27.9343C53.6822 27.277 53.4949 26.5363 53.4949 25.7121C53.4949 24.8878 53.6822 24.1523 54.0566 23.5055C54.4415 22.8586 54.972 22.3526 55.6481 21.9875C56.3242 21.6223 57.0835 21.4397 57.926 21.4397C58.7789 21.4397 59.5434 21.6223 60.2195 21.9875C60.8956 22.3526 61.4209 22.8586 61.7954 23.5055C62.1802 24.1523 62.3726 24.8878 62.3726 25.7121C62.3726 26.5363 62.1802 27.277 61.7954 27.9343C61.4209 28.5811 60.8956 29.0871 60.2195 29.4523C59.5434 29.8174 58.7789 30 57.926 30ZM57.926 28.3255C58.6437 28.3255 59.2366 28.0856 59.7047 27.6056C60.1727 27.1257 60.4068 26.4945 60.4068 25.7121C60.4068 24.9296 60.1727 24.2984 59.7047 23.8185C59.2366 23.3385 58.6437 23.0986 57.926 23.0986C57.2083 23.0986 56.6154 23.3385 56.1473 23.8185C55.6897 24.2984 55.4608 24.9296 55.4608 25.7121C55.4608 26.4945 55.6897 27.1257 56.1473 27.6056C56.6154 28.0856 57.2083 28.3255 57.926 28.3255Z" fill="white"/>
<path d="M68.9183 29.4366C68.6895 29.6244 68.4086 29.7653 68.0758 29.8592C67.7533 29.9531 67.4101 30 67.046 30C66.1307 30 65.4234 29.76 64.9241 29.2801C64.4248 28.8002 64.1752 28.1012 64.1752 27.1831V19.687H66.1255V21.5962H68.3566V23.1612H66.1255V27.1362C66.1255 27.543 66.2243 27.856 66.4219 28.0751C66.63 28.2838 66.916 28.3881 67.28 28.3881C67.7169 28.3881 68.081 28.2733 68.3722 28.0438L68.9183 29.4366Z" fill="white"/>
<path d="M74.0006 30C73.1581 30 72.3988 29.8174 71.7227 29.4523C71.0466 29.0871 70.5161 28.5811 70.1312 27.9343C69.7568 27.277 69.5696 26.5363 69.5696 25.7121C69.5696 24.8878 69.7568 24.1523 70.1312 23.5055C70.5161 22.8586 71.0466 22.3526 71.7227 21.9875C72.3988 21.6223 73.1581 21.4397 74.0006 21.4397C74.8535 21.4397 75.618 21.6223 76.2941 21.9875C76.9702 22.3526 77.4955 22.8586 77.87 23.5055C78.2548 24.1523 78.4473 24.8878 78.4473 25.7121C78.4473 26.5363 78.2548 27.277 77.87 27.9343C77.4955 28.5811 76.9702 29.0871 76.2941 29.4523C75.618 29.8174 74.8535 30 74.0006 30ZM74.0006 28.3255C74.7183 28.3255 75.3112 28.0856 75.7793 27.6056C76.2473 27.1257 76.4814 26.4945 76.4814 25.7121C76.4814 24.9296 76.2473 24.2984 75.7793 23.8185C75.3112 23.3385 74.7183 23.0986 74.0006 23.0986C73.2829 23.0986 72.69 23.3385 72.2219 23.8185C71.7643 24.2984 71.5354 24.9296 71.5354 25.7121C71.5354 26.4945 71.7643 27.1257 72.2219 27.6056C72.69 28.0856 73.2829 28.3255 74.0006 28.3255Z" fill="white"/>
<path d="M82.1689 22.7543C82.7306 21.8779 83.7187 21.4397 85.1333 21.4397V23.302C84.9669 23.2707 84.8161 23.2551 84.6809 23.2551C83.9215 23.2551 83.3287 23.4794 82.9022 23.928C82.4757 24.3662 82.2625 25.0026 82.2625 25.8372V29.8905H80.3122V21.5336H82.1689V22.7543Z" fill="white"/>
<path d="M89.3926 30C88.7165 30 88.056 29.9113 87.4111 29.734C86.7662 29.5566 86.2514 29.3323 85.8665 29.061L86.6154 27.5743C86.9899 27.8247 87.4371 28.0282 87.9572 28.1847C88.4877 28.3307 89.0078 28.4038 89.5174 28.4038C90.6824 28.4038 91.2649 28.096 91.2649 27.4804C91.2649 27.1883 91.1141 26.9849 90.8124 26.8701C90.5212 26.7553 90.0479 26.6458 89.3926 26.5415C88.7061 26.4371 88.1444 26.3172 87.7076 26.1815C87.2811 26.0459 86.9067 25.8112 86.5842 25.4773C86.2722 25.133 86.1161 24.6583 86.1161 24.0532C86.1161 23.2603 86.4438 22.6291 87.0991 22.1596C87.7648 21.6797 88.6593 21.4397 89.7827 21.4397C90.3548 21.4397 90.9268 21.5076 91.4989 21.6432C92.071 21.7684 92.5391 21.9405 92.9031 22.1596L92.1542 23.6463C91.4469 23.229 90.6512 23.0203 89.7671 23.0203C89.195 23.0203 88.7581 23.109 88.4565 23.2864C88.1652 23.4533 88.0196 23.6776 88.0196 23.9593C88.0196 24.2723 88.1756 24.4966 88.4877 24.6322C88.8101 24.7574 89.3042 24.8774 89.9699 24.9922C90.6356 25.0965 91.1817 25.2165 91.6081 25.3521C92.0346 25.4877 92.3987 25.7173 92.7003 26.0407C93.0123 26.3641 93.1684 26.8232 93.1684 27.4178C93.1684 28.2003 92.8303 28.8263 92.1542 29.2958C91.4781 29.7653 90.5576 30 89.3926 30Z" fill="white"/>
</svg>
