<svg width="81" height="81" viewBox="0 0 81 81" fill="none" xmlns="http://www.w3.org/2000/svg">
<path d="M40.9091 0.67749C18.9091 0.67749 0.909088 18.6775 0.909088 40.6775C0.909088 62.6775 18.9091 80.6775 40.9091 80.6775C62.9091 80.6775 80.9091 62.6775 80.9091 40.6775C80.9091 18.6775 62.9091 0.67749 40.9091 0.67749ZM40.9091 78.0108C20.3758 78.0108 3.57581 61.2108 3.57581 40.6775C3.57581 20.1442 20.3758 3.34421 40.9091 3.34421C61.4424 3.34421 78.2424 20.1442 78.2424 40.6775C78.2424 61.2108 61.4424 78.0108 40.9091 78.0108Z" fill="#F3B30E"/>
<path d="M40.9091 20.6775C29.8424 20.6775 20.9091 29.6108 20.9091 40.6775C20.9091 51.7442 29.8424 60.6775 40.9091 60.6775C51.9758 60.6775 60.9091 51.7442 60.9091 40.6775C60.9091 29.6108 51.9758 20.6775 40.9091 20.6775ZM40.9091 58.0108C31.3091 58.0108 23.5758 50.2775 23.5758 40.6775C23.5758 31.0775 31.3091 23.3442 40.9091 23.3442C50.5091 23.3442 58.2424 31.0775 58.2424 40.6775C58.2424 50.2775 50.5091 58.0108 40.9091 58.0108Z" fill="#F3B30E"/>
<path d="M40.9091 36.6775C43.8424 36.6775 46.2424 34.2775 46.2424 31.3443C46.2424 28.411 43.8424 26.011 40.9091 26.011C37.9758 26.011 35.5758 28.411 35.5758 31.3443C35.5758 34.2775 37.9758 36.6775 40.9091 36.6775ZM40.9091 28.6775C42.3758 28.6775 43.5758 29.8775 43.5758 31.3443C43.5758 32.811 42.3758 34.011 40.9091 34.011C39.4424 34.011 38.2424 32.811 38.2424 31.3443C38.2424 29.8775 39.4424 28.6775 40.9091 28.6775Z" fill="#F3B30E"/>
<path d="M40.9091 44.6775C37.9758 44.6775 35.5758 47.0775 35.5758 50.0108C35.5758 52.9441 37.9758 55.3441 40.9091 55.3441C43.8424 55.3441 46.2424 52.9441 46.2424 50.0108C46.2424 47.0775 43.8424 44.6775 40.9091 44.6775ZM40.9091 52.6775C39.4424 52.6775 38.2424 51.4775 38.2424 50.0108C38.2424 48.5441 39.4424 47.344 40.9091 47.344C42.3758 47.344 43.5758 48.5441 43.5758 50.0108C43.5758 51.4775 42.3758 52.6775 40.9091 52.6775Z" fill="#F3B30E"/>
<path d="M31.5758 35.3442C28.6425 35.3442 26.2425 37.7442 26.2425 40.6775C26.2425 43.6108 28.6425 46.0108 31.5758 46.0108C34.5091 46.0108 36.9091 43.6108 36.9091 40.6775C36.9091 37.7442 34.5091 35.3442 31.5758 35.3442ZM31.5758 43.3442C30.1091 43.3442 28.9091 42.1442 28.9091 40.6775C28.9091 39.2108 30.1091 38.0108 31.5758 38.0108C33.0425 38.0108 34.2425 39.2108 34.2425 40.6775C34.2425 42.1442 33.0424 43.3442 31.5758 43.3442Z" fill="#F3B30E"/>
<path d="M44.9091 40.6775C44.9091 43.6108 47.3091 46.0108 50.2424 46.0108C53.1756 46.0108 55.5756 43.6108 55.5756 40.6775C55.5756 37.7442 53.1756 35.3442 50.2424 35.3442C47.3091 35.3442 44.9091 37.7442 44.9091 40.6775ZM52.9091 40.6775C52.9091 42.1442 51.7091 43.3442 50.2424 43.3442C48.7757 43.3442 47.5756 42.1442 47.5756 40.6775C47.5756 39.2108 48.7757 38.0108 50.2424 38.0108C51.7091 38.0108 52.9091 39.2108 52.9091 40.6775Z" fill="#F3B30E"/>
<path d="M39.5758 40.6775C39.5758 41.4775 40.1091 42.0108 40.9091 42.0108C41.7091 42.0108 42.2424 41.4775 42.2424 40.6775C42.2424 39.8775 41.7091 39.3442 40.9091 39.3442C40.1091 39.3442 39.5758 39.8775 39.5758 40.6775Z" fill="#F3B30E"/>
<path d="M11.8424 27.2109C11.1756 26.9442 10.3756 27.3442 10.1091 27.8776C9.70908 28.5443 10.1091 29.3443 10.7758 29.6109C11.4425 30.0109 12.2425 29.6109 12.5091 28.9442C12.9091 28.2776 12.5091 27.4776 11.8424 27.2109Z" fill="#F3B30E"/>
<path d="M16.9091 32.1443C17.5758 32.5443 18.3758 32.1443 18.6424 31.4775C19.0424 30.8108 18.6424 30.0108 17.9756 29.7443C17.3089 29.4777 16.5089 29.8776 16.2424 30.411C15.8424 31.0776 16.2424 31.8775 16.9091 32.1443Z" fill="#F3B30E"/>
<path d="M64.9091 49.0776C64.1091 48.8108 63.4424 49.0776 63.1758 49.7443C62.7758 50.411 63.1758 51.211 63.8425 51.4775C64.5092 51.8775 65.3092 51.4775 65.5758 50.8108C65.9758 50.1443 65.5758 49.3443 64.9091 49.0776Z" fill="#F3B30E"/>
<path d="M71.0423 51.6108C70.3756 51.344 69.5756 51.6108 69.3091 52.2775C68.9091 52.9442 69.3091 53.7442 69.9758 54.0108C70.6425 54.4108 71.4425 54.0108 71.7091 53.344C72.1091 52.6775 71.7091 51.8775 71.0423 51.6108Z" fill="#F3B30E"/>
<path d="M52.6423 12.2774C53.3091 12.6774 54.1091 12.2774 54.3756 11.6106C54.6424 10.9439 54.2424 10.1439 53.7089 9.87736C53.0422 9.47736 52.2422 9.87736 51.9756 10.5441C51.5758 11.2106 51.9758 12.0106 52.6423 12.2774Z" fill="#F3B30E"/>
<path d="M50.1091 18.4107C50.7758 18.8107 51.5758 18.4107 51.8424 17.7439C52.1091 17.0772 51.7091 16.2772 51.1756 16.0107C50.5089 15.6107 49.7089 16.0107 49.4424 16.6774C49.0424 17.3441 49.4424 18.1441 50.1091 18.4107Z" fill="#F3B30E"/>
<path d="M31.8424 62.8107C31.1756 62.4107 30.3756 62.8107 30.1091 63.4774C29.7091 64.1442 30.1091 64.9441 30.7758 65.2107C31.4425 65.6107 32.2425 65.2107 32.5091 64.544C32.7756 63.8773 32.5091 63.2107 31.8424 62.8107Z" fill="#F3B30E"/>
<path d="M29.3091 69.0776C28.6424 68.6776 27.8424 69.0776 27.5758 69.7443C27.1758 70.411 27.5758 71.211 28.2425 71.4776C28.9092 71.8776 29.7092 71.4776 29.9758 70.8108C30.2424 70.1441 29.9758 69.3443 29.3091 69.0776Z" fill="#F3B30E"/>
<path d="M29.1758 12.4106C29.8425 12.1439 30.1091 11.3439 29.8425 10.6774C29.576 10.0108 28.7758 9.61064 28.1093 10.0106C27.4425 10.2774 27.176 11.0774 27.4425 11.7439C27.7091 12.4105 28.5091 12.6774 29.1758 12.4106Z" fill="#F3B30E"/>
<path d="M29.9758 17.8775C30.2425 18.5442 31.0425 18.8108 31.7091 18.5442C32.3756 18.2776 32.6424 17.4775 32.3758 16.8109C32.1091 16.1442 31.3091 15.7442 30.6425 16.1442C29.9758 16.4108 29.7091 17.2108 29.9758 17.8775Z" fill="#F3B30E"/>
<path d="M50.1091 62.9443C49.4424 63.211 49.1758 64.011 49.4424 64.6776C49.7089 65.3441 50.5091 65.6109 51.1757 65.3443C51.8422 65.0777 52.1089 64.2776 51.8424 63.611C51.5758 62.8109 50.7758 62.5443 50.1091 62.9443Z" fill="#F3B30E"/>
<path d="M52.7758 69.0776C52.1091 69.3443 51.8425 70.1443 52.1091 70.8108C52.3758 71.4776 53.1758 71.7441 53.8424 71.4776C54.5089 71.211 54.7756 70.4108 54.5091 69.7443C54.1091 69.0776 53.4424 68.6776 52.7758 69.0776Z" fill="#F3B30E"/>
<path d="M70.9091 29.6108C71.5758 29.3441 71.9758 28.5441 71.5758 27.8775C71.3091 27.2108 70.5091 26.9442 69.8425 27.2108C69.1759 27.4773 68.9092 28.2775 69.1758 28.9441C69.4424 29.6106 70.2423 29.8775 70.9091 29.6108Z" fill="#F3B30E"/>
<path d="M64.7758 32.1442C65.4425 31.8775 65.8425 31.0775 65.4425 30.411C65.1758 29.7442 64.3758 29.4777 63.7092 29.7442C63.0427 30.0108 62.776 30.811 63.0425 31.4775C63.3091 32.1441 64.1091 32.4108 64.7758 32.1442Z" fill="#F3B30E"/>
<path d="M16.9091 49.2108C16.2424 49.4775 15.9758 50.2775 16.2424 50.9441C16.5089 51.6106 17.3091 51.8773 17.9757 51.6108C18.7757 51.3441 19.0424 50.5441 18.6424 49.8775C18.3758 49.2108 17.5758 48.9442 16.9091 49.2108Z" fill="#F3B30E"/>
<path d="M10.7758 51.8776C10.1091 52.1443 9.84252 52.9443 10.1091 53.6109C10.3756 54.2774 11.1758 54.5442 11.8424 54.2776C12.5091 53.8776 12.9091 53.2109 12.5091 52.5443C12.2424 51.8776 11.4424 51.6109 10.7758 51.8776Z" fill="#F3B30E"/>
</svg>
