<svg width="80" height="81" viewBox="0 0 80 81" fill="none" xmlns="http://www.w3.org/2000/svg">
<path d="M38.0909 7.34424H11.4242C10.6242 7.34424 10.0909 7.87752 10.0909 8.67752V27.3443C10.0909 28.1443 10.6242 28.6776 11.4242 28.6776H38.0909C38.8909 28.6776 39.4242 28.1443 39.4242 27.3443V8.67752C39.4242 7.87752 38.8909 7.34424 38.0909 7.34424ZM36.7577 26.0108H12.7576V10.0108H36.7577V26.0108Z" fill="#F3B30E"/>
<path d="M38.0909 36.6775H11.4242C10.6242 36.6775 10.0909 37.2108 10.0909 38.0108V64.6775C10.0909 65.4776 10.6242 66.0108 11.4242 66.0108H38.0909C38.8909 66.0108 39.4242 65.4776 39.4242 64.6775V38.0108C39.4242 37.2108 38.8909 36.6775 38.0909 36.6775ZM36.7577 63.3443H12.7576V39.3442H36.7577V63.3443Z" fill="#F3B30E"/>
<path d="M61.1577 14.0108C60.3577 13.8775 59.5577 14.1441 59.0244 14.6775C58.4911 15.2108 58.0911 16.0108 58.0911 16.8108C58.0911 18.1441 58.8911 19.0775 60.0911 19.4775C63.8244 20.5442 68.7579 27.8775 68.7579 31.3443V63.0776C68.7579 66.0109 66.6246 68.4109 63.9578 68.6776C62.3578 68.8109 60.8911 68.4109 59.8246 67.3443C58.758 66.2778 58.0913 64.8111 58.0913 63.3443V38.0108C58.0913 31.1274 52.8047 25.4193 46.0913 24.7447V2.01077C46.0913 1.21077 45.558 0.67749 44.758 0.67749H4.75789C3.95789 0.67749 3.4246 1.21077 3.4246 2.01077V72.6776H2.09085C1.29085 72.6776 0.757568 73.2109 0.757568 74.0109V79.3442C0.757568 80.1442 1.29085 80.6775 2.09085 80.6775H47.4242C48.2242 80.6775 48.7575 80.1442 48.7575 79.3442V74.0109C48.7575 73.2109 48.2242 72.6776 47.4242 72.6776H46.0909V32.8476C48.3845 33.4435 50.091 35.5376 50.091 38.011V62.9443C50.091 70.1443 55.5577 76.1444 62.491 76.6776C62.7577 76.6776 63.1577 76.6776 63.4243 76.6776C66.891 76.6776 70.091 75.4776 72.491 73.0776C75.1577 70.5443 76.7577 67.0776 76.7577 63.3443V32.6776H78.091C78.891 32.6776 79.4243 32.1443 79.4243 31.3443C79.4243 23.8775 69.1577 15.3442 61.1577 14.0108ZM46.0909 78.0109H3.42414V75.3442H4.75742H44.7575H46.0908V78.0109H46.0909ZM6.09086 72.6776V3.34421H43.4242V26.011V31.3443V72.6776H6.09086ZM75.4243 30.0108C74.6243 30.0108 74.091 30.5441 74.091 31.3441V63.4776C74.091 66.4109 72.891 69.2109 70.7577 71.2109C68.6244 73.2109 65.8244 74.2776 62.7577 74.0109C57.1577 73.6109 52.7577 68.8109 52.7577 62.9442V38.0108C52.7577 34.0108 49.8244 30.8108 46.0909 30.1441V27.4775C51.291 28.1443 55.4242 32.5443 55.4242 38.0108V63.4776C55.4242 65.6109 56.3575 67.8776 58.091 69.3443C59.691 70.8111 61.9577 71.6111 64.2243 71.3444C68.2243 70.9444 71.4243 67.3443 71.4243 63.0776V31.3443C71.4243 26.811 65.691 18.2775 60.7575 16.811C67.0243 17.7442 75.4243 24.2777 76.6243 30.011L75.4243 30.0108Z" fill="#F3B30E"/>
<path d="M18.0909 46.0108H31.4242C32.2242 46.0108 32.7575 45.4775 32.7575 44.6775C32.7575 43.8775 32.2242 43.3442 31.4242 43.3442H18.0909C17.2909 43.3442 16.7576 43.8775 16.7576 44.6775C16.7576 45.4775 17.2909 46.0108 18.0909 46.0108Z" fill="#F3B30E"/>
<path d="M18.0909 52.6776H31.4242C32.2242 52.6776 32.7575 52.1443 32.7575 51.3443C32.7575 50.5443 32.2242 50.011 31.4242 50.011H18.0909C17.2909 50.011 16.7576 50.5443 16.7576 51.3443C16.7576 52.1443 17.2909 52.6776 18.0909 52.6776Z" fill="#F3B30E"/>
<path d="M18.0909 59.3443H31.4242C32.2242 59.3443 32.7575 58.811 32.7575 58.011C32.7575 57.211 32.2242 56.6777 31.4242 56.6777H18.0909C17.2909 56.6777 16.7576 57.211 16.7576 58.011C16.7576 58.811 17.2909 59.3443 18.0909 59.3443Z" fill="#F3B30E"/>
</svg>
