<svg width="102" height="71" viewBox="0 0 102 71" fill="none" xmlns="http://www.w3.org/2000/svg">
<path d="M51.0842 0H50.916C34.432 0 18.9574 5.71899 9.53783 14.9702C3.65071 21.0255 0.454742 27.9218 0.454742 35.3228C0.454742 54.6663 23.1622 70.6455 51.0842 70.6455C51.7569 70.6455 52.598 70.1409 52.7661 69.4682C59.4943 47.097 59.4943 23.5485 52.7661 1.17735C52.4297 0.504605 51.7569 0 51.0842 0ZM49.9066 67.4497C24.3397 66.9451 3.81884 52.816 3.81884 35.4911C3.81884 29.0994 6.67834 22.8758 12.0609 17.4932C20.6393 8.74662 34.7683 3.53224 49.9066 3.3641C55.9621 24.3896 55.9621 46.4243 49.9066 67.4497Z" fill="#F3B30E"/>
<path d="M99.8632 25.2305H62.8585C61.8493 25.2305 61.1765 25.9032 61.1765 26.9124C61.1765 27.9216 61.8493 28.5944 62.8585 28.5944H99.8634C100.873 28.5944 101.545 27.9216 101.545 26.9124C101.545 25.9032 100.872 25.2305 99.8632 25.2305Z" fill="#F3B30E"/>
<path d="M99.8632 42.051H62.8585C61.8493 42.051 61.1765 42.7238 61.1765 43.733C61.1765 44.7422 61.8493 45.4149 62.8585 45.4149H99.8634C100.873 45.4149 101.545 44.7422 101.545 43.733C101.545 42.7238 100.872 42.051 99.8632 42.051Z" fill="#F3B30E"/>
<path d="M99.8632 58.8713H62.8585C61.8493 58.8713 61.1765 59.5441 61.1765 60.5533C61.1765 61.5625 61.8493 62.2352 62.8585 62.2352H99.8634C100.873 62.2352 101.545 61.5625 101.545 60.5533C101.545 59.5443 100.872 58.8713 99.8632 58.8713Z" fill="#F3B30E"/>
<path d="M62.8585 11.7743H99.8634C100.873 11.7743 101.545 11.1016 101.545 10.0924C101.545 9.08314 100.873 8.4104 99.8634 8.4104H62.8585C61.8493 8.4104 61.1765 9.08314 61.1765 10.0924C61.1763 11.1014 61.8493 11.7743 62.8585 11.7743Z" fill="#F3B30E"/>
</svg>
