<svg width="80" height="81" viewBox="0 0 80 81" fill="none" xmlns="http://www.w3.org/2000/svg">
<path d="M10.6667 34.0108H69.3335C69.7335 34.0108 70.1335 33.8775 70.4002 33.4775C70.6669 33.0775 70.8002 32.6775 70.6669 32.2775C66.8 18.4108 54.2667 8.67749 40 8.67749C25.7333 8.67749 13.2 18.4108 9.33331 32.2775C9.33331 32.6775 9.33331 33.2108 9.60003 33.4775C9.86675 33.8775 10.2667 34.0108 10.6667 34.0108ZM40 11.3442C52.4 11.3442 63.6 19.4775 67.4667 31.3442H12.4C16.4 19.4775 27.6 11.3442 40 11.3442Z" fill="#F3B30E"/>
<path d="M70.6667 39.6108C70.1334 39.4775 69.4667 39.4775 68.9334 39.4775C63.2002 39.4775 59.6002 42.4108 59.6002 47.2108C59.6002 51.4775 62.5334 55.2108 66.8002 56.2775C66.8002 56.2775 66.9334 56.2775 67.0669 56.2775C67.6002 56.2775 68.0002 56.0108 68.0002 55.7443C70.4002 51.0775 71.7334 47.7443 71.7334 42.411C71.7334 42.011 71.7334 41.7443 71.7334 41.3443V40.811C71.7333 40.2775 71.3333 39.7443 70.6667 39.6108ZM69.4667 42.1443C69.4667 46.5443 68.4 49.4775 66.5334 53.211C64 52.2775 62.4 49.8775 62.4 47.0775C62.4 42.5443 67.0667 42.0108 69.0667 42.0108C69.0667 42.0108 69.2 42.0108 69.4667 41.8775C69.4667 42.0108 69.4667 42.0108 69.4667 42.1443Z" fill="#F3B30E"/>
<path d="M40.1333 57.0774C31.7333 57.0774 24.2666 60.0107 21.0666 64.6774C20.6666 65.3441 20.7999 66.1441 21.3333 66.5441C26.8 70.5441 33.2 72.6774 40 72.6774C46.6667 72.6774 53.2 70.5441 58.8 66.5441C59.3333 66.1441 59.4667 65.2108 59.0667 64.6774C55.8667 60.0107 48.4 57.0774 40.1333 57.0774ZM40 70.0107C34.2667 70.0107 28.8 68.4107 24 65.2107C27.2 61.8774 33.3333 59.744 40 59.744C46.6667 59.744 52.9333 61.8772 56 65.2107C51.2 68.4107 45.7333 70.0107 40 70.0107Z" fill="#F3B30E"/>
<path d="M40 0.67749C18 0.67749 0 18.6775 0 40.6775C0 62.6775 18 80.6775 40 80.6775C62 80.6775 80 62.6775 80 40.6775C80 18.6775 62 0.67749 40 0.67749ZM40 78.0108C19.4667 78.0108 2.66672 61.2108 2.66672 40.6775C2.66672 20.1442 19.4667 3.34421 40 3.34421C60.5333 3.34421 77.3333 20.1442 77.3333 40.6775C77.3333 61.2108 60.5333 78.0108 40 78.0108Z" fill="#F3B30E"/>
<path d="M10.8 37.7441C10.2667 37.7441 9.6 37.7441 9.06672 37.8774C8.53344 38.0107 8 38.4107 8 39.0774V39.6107C8 40.0107 8 40.2774 8 40.6774C8 45.8774 9.33328 50.9441 11.7333 55.6107C12 56.0107 12.4 56.2774 12.9333 56.2774C13.0666 56.2774 13.2 56.2774 12.9333 56.1441C17.2 55.0774 20.1333 51.3441 20.1333 47.0774C20.1333 42.0107 16 37.7441 10.8 37.7441ZM13.6 53.3441C11.6 49.3441 10.6667 45.0774 10.6667 40.6774C10.6667 40.5441 10.6667 40.5441 10.6667 40.4107C14.5334 40.2774 17.7334 43.344 17.7334 47.2107C17.7333 49.8774 16.1333 52.2774 13.6 53.3441Z" fill="#F3B30E"/>
<path d="M26.6667 44.6775C26.6667 48.5442 32.4 51.3442 40 51.3442C47.6 51.3442 53.3332 48.5442 53.3332 44.6775C53.3332 40.8107 47.6 38.0107 40 38.0107C32.4 38.0107 26.6667 40.8107 26.6667 44.6775ZM50.6667 44.6775C50.6667 46.2775 46.5334 48.6775 40 48.6775C33.4667 48.6775 29.3332 46.2775 29.3332 44.6775C29.3332 43.0775 33.4665 40.6775 40 40.6775C46.5332 40.6775 50.6667 43.0775 50.6667 44.6775Z" fill="#F3B30E"/>
</svg>
