<svg width="101" height="81" viewBox="0 0 101 81" fill="none" xmlns="http://www.w3.org/2000/svg">
<path d="M16.8654 65.3305C18.8644 65.3305 20.6968 64.6642 21.8629 63.6647C23.0289 64.6642 24.8613 65.3305 26.8603 65.3305C28.8593 65.3305 30.6918 64.6642 31.8578 63.6647C33.0238 64.6642 34.8562 65.3305 36.8552 65.3305C37.8547 65.3305 38.521 64.6642 38.521 63.6647C38.521 62.6653 37.8547 61.999 36.8552 61.999C34.8562 61.999 33.5235 60.9995 33.5235 60.3332C33.5235 59.3337 32.8573 58.6675 31.8578 58.6675C30.8583 58.6675 30.192 59.3337 30.192 60.3332C30.192 60.9995 28.8593 61.999 26.8603 61.999C24.8613 61.999 23.5286 60.9995 23.5286 60.3332C23.5286 59.3337 22.8623 58.6675 21.8629 58.6675C20.8634 58.6675 20.1971 59.3337 20.1971 60.3332C20.1971 60.9995 18.8644 61.999 16.8654 61.999C14.8664 61.999 13.5337 60.9995 13.5337 60.3332C13.5337 59.3337 12.8674 58.6675 11.8679 58.6675C10.8685 58.6675 10.2022 59.3337 10.2022 60.3332C10.2022 60.9995 8.86947 61.999 6.87049 61.999C4.8715 61.999 3.53878 60.9995 3.53878 60.3332C3.53878 59.3337 2.87252 58.6675 1.87303 58.6675C0.873538 58.6675 0.207275 59.3336 0.207275 60.333C0.207275 63.165 3.20575 65.3305 6.87049 65.3305C8.86947 65.3305 10.7019 64.6642 11.8679 63.6647C13.0341 64.664 14.8664 65.3305 16.8654 65.3305Z" fill="#F3B30E"/>
<path d="M90.1615 76.9912C88.1625 76.9912 86.8298 75.9917 86.8298 75.3254C86.8298 74.3259 86.1635 73.6597 85.1641 73.6597C84.1646 73.6597 83.4983 74.3259 83.4983 75.3254C83.4983 75.9917 82.1656 76.9912 80.1666 76.9912C78.1676 76.9912 76.8349 75.9917 76.8349 75.3254C76.8349 74.3259 76.1686 73.6597 75.1691 73.6597C74.1696 73.6597 73.5034 74.3259 73.5034 75.3254C73.5034 75.9917 72.1707 76.9912 70.1717 76.9912C68.1727 76.9912 66.84 75.9917 66.84 75.3254C66.84 74.3259 66.1737 73.6597 65.1742 73.6597C64.1747 73.6597 63.5085 74.3259 63.5085 75.3254C63.5085 75.9917 62.1758 76.9912 60.1768 76.9912C58.1778 76.9912 56.8451 75.9917 56.8451 75.3254C56.8451 74.3259 56.1788 73.6597 55.1793 73.6597C54.1798 73.6597 53.5135 74.3259 53.5135 75.3254C53.5135 75.9917 52.1808 76.9912 50.1819 76.9912C48.1829 76.9912 46.8501 75.9917 46.8501 75.3254C46.8501 74.3259 46.1839 73.6597 45.1844 73.6597C44.1849 73.6597 43.5186 74.3259 43.5186 75.3254C43.5186 75.9917 42.1859 76.9912 40.1869 76.9912C38.188 76.9912 36.8552 75.9917 36.8552 75.3254C36.8552 74.3259 36.189 73.6597 35.1895 73.6597C34.19 73.6597 33.5237 74.3259 33.5237 75.3254C33.5237 75.9917 32.191 76.9912 30.192 76.9912C28.193 76.9912 26.8603 75.9917 26.8603 75.3254C26.8603 74.3259 26.1941 73.6597 25.1946 73.6597C24.1951 73.6597 23.5288 74.3259 23.5288 75.3254C23.5288 75.9917 22.1961 76.9912 20.1971 76.9912C18.1981 76.9912 16.8654 75.9917 16.8654 75.3254C16.8654 74.3259 16.1991 73.6597 15.1996 73.6597C14.2002 73.6597 13.5339 74.3259 13.5339 75.3254C13.5339 75.9917 12.2012 76.9912 10.2022 76.9912C9.2027 76.9912 8.53644 77.6574 8.53644 78.6569C8.53644 79.6564 9.2027 80.3227 10.2022 80.3227C12.2012 80.3227 14.0336 79.6564 15.1996 78.6569C16.3657 79.6564 18.1981 80.3227 20.1971 80.3227C22.1961 80.3227 24.0286 79.6564 25.1946 78.6569C26.3606 79.6564 28.193 80.3227 30.192 80.3227C32.191 80.3227 34.0235 79.6564 35.1895 78.6569C36.3555 79.6564 38.188 80.3227 40.1869 80.3227C42.1859 80.3227 44.0184 79.6564 45.1844 78.6569C46.3504 79.6564 48.1829 80.3227 50.1819 80.3227C52.1808 80.3227 54.0133 79.6564 55.1793 78.6569C56.3453 79.6564 58.1778 80.3227 60.1768 80.3227C62.1758 80.3227 64.0082 79.6564 65.1742 78.6569C66.3402 79.6564 68.1727 80.3227 70.1717 80.3227C72.1707 80.3227 74.0031 79.6564 75.1691 78.6569C76.3351 79.6564 78.1676 80.3227 80.1666 80.3227C82.1656 80.3227 83.998 79.6564 85.1641 78.6569C86.3301 79.6564 88.1625 80.3227 90.1615 80.3227C91.161 80.3227 91.8273 79.6564 91.8273 78.6569C91.8273 77.6574 91.161 76.9912 90.1615 76.9912Z" fill="#F3B30E"/>
<path d="M98.4907 61.999C96.4917 61.999 95.159 60.9995 95.159 60.3332C95.159 59.3337 94.4928 58.6675 93.4933 58.6675C92.4938 58.6675 91.8275 59.3337 91.8275 60.3332C91.8275 60.9995 90.4948 61.999 88.4958 61.999C86.4968 61.999 85.1641 60.9995 85.1641 60.3332C85.1641 59.3337 84.4978 58.6675 83.4984 58.6675C82.4989 58.6675 81.8326 59.3337 81.8326 60.3332C81.8326 60.9995 80.4999 61.999 78.5009 61.999C76.5019 61.999 75.1692 60.9995 75.1692 60.3332C75.1692 59.3337 74.5029 58.6675 73.5034 58.6675C72.504 58.6675 71.8377 59.3337 71.8377 60.3332C71.8377 60.9995 70.505 61.999 68.506 61.999C66.507 61.999 65.1743 60.9995 65.1743 60.3332C65.1743 59.3337 64.508 58.6675 63.5085 58.6675C62.509 58.6675 61.8428 59.3337 61.8428 60.3332C61.8428 63.1652 64.8412 65.3307 68.506 65.3307C70.505 65.3307 72.3374 64.6644 73.5034 63.6649C74.6694 64.6644 76.5019 65.3307 78.5009 65.3307C80.4999 65.3307 82.3323 64.6644 83.4984 63.6649C84.6644 64.6644 86.4968 65.3307 88.4958 65.3307C90.4948 65.3307 92.3273 64.6644 93.4933 63.6649C94.6593 64.6644 96.4917 65.3307 98.4907 65.3307C99.4902 65.3307 100.156 64.6644 100.156 63.6649C100.156 62.6654 99.4902 61.999 98.4907 61.999Z" fill="#F3B30E"/>
<path d="M48.1829 68.4956C48.8492 68.6621 49.5156 68.6621 50.1819 68.6621C52.0143 68.6621 53.8466 67.9958 55.3458 66.8296C57.3448 65.3304 58.5108 62.8317 58.5108 60.3329C58.5108 57.6677 57.1781 55.169 55.1791 53.6697V47.0065H60.1766C63.0086 47.0065 65.1741 44.841 65.1741 42.009C65.1741 39.1771 63.0086 37.0116 60.1766 37.0116H55.1791V32.0141H60.1766C63.0086 32.0141 65.1741 29.8486 65.1741 27.0167C65.1741 24.1847 63.0086 22.0192 60.1766 22.0192H55.1791V17.0218H60.1766C63.0086 17.0218 65.1741 14.8563 65.1741 12.0243C65.1741 9.19235 63.0086 7.02685 60.1766 7.02685H55.1791V5.52762C55.1791 3.02889 53.3467 0.863387 50.8479 0.363641C49.5152 0.197124 48.016 0.530158 46.85 1.52965C45.684 2.52914 45.0175 3.86186 45.0175 5.3611V53.8364C42.3523 55.8354 41.1861 59.1671 42.019 62.4986C42.8522 65.4971 45.1844 67.8293 48.1829 68.4956ZM47.6831 56.1684C48.1829 55.8352 48.5161 55.3355 48.5161 54.6692V5.3611C48.5161 4.86135 48.6826 4.36161 49.1824 4.02838C49.3489 3.86186 49.8486 3.69515 50.1819 3.69515C50.3484 3.69515 50.3484 3.69515 50.5151 3.69515C51.1814 3.86167 51.8478 4.69464 51.8478 5.52762V8.69261C51.8478 9.6921 52.5141 10.3584 53.5136 10.3584H60.1768C61.1763 10.3584 61.8425 11.0246 61.8425 12.0241C61.8425 13.0236 61.1763 13.6899 60.1768 13.6899H53.5136C52.5141 13.6899 51.8478 14.3561 51.8478 15.3556V23.6848C51.8478 24.6843 52.5141 25.3505 53.5136 25.3505H60.1768C61.1763 25.3505 61.8425 26.0168 61.8425 27.0163C61.8425 28.0158 61.1763 28.682 60.1768 28.682H53.5136C52.5141 28.682 51.8478 29.3483 51.8478 30.3478V38.677C51.8478 39.6764 52.5141 40.3427 53.5136 40.3427H60.1768C61.1763 40.3427 61.8425 41.009 61.8425 42.0085C61.8425 43.008 61.1763 43.6742 60.1768 43.6742H53.5136C52.5141 43.6742 51.8478 44.3405 51.8478 45.34V54.3354C51.8478 55.0017 52.1811 55.5014 52.6808 55.8346C54.18 56.8341 55.1795 58.3334 55.1795 60.1658C55.1795 61.8316 54.5133 63.1643 53.3471 64.1638C52.1811 65.1633 50.5151 65.4965 49.0159 65.1633C47.1834 64.83 45.8509 63.3308 45.3511 61.6651C44.8512 59.5001 45.6842 57.3346 47.6831 56.1684Z" fill="#F3B30E"/>
</svg>
