<svg width="81" height="81" viewBox="0 0 81 81" fill="none" xmlns="http://www.w3.org/2000/svg">
<path d="M74.2424 64.4368V40.3228V16.2087C78.0133 15.5688 80.9091 12.2685 80.9091 8.32275C80.9091 3.92275 77.3091 0.322754 72.9091 0.322754C68.5091 0.322754 64.9091 3.92275 64.9091 8.32275C64.9091 12.2685 67.8049 15.5688 71.5758 16.2087V38.9895H52.9091V16.2087C56.68 15.5688 59.5758 12.2685 59.5758 8.32275C59.5758 3.92275 55.9758 0.322754 51.5758 0.322754C47.1758 0.322754 43.5758 3.92275 43.5758 8.32275C43.5758 12.2685 46.4716 15.5688 50.2425 16.2087V38.9895H31.5758V16.2087C35.3467 15.5688 38.2425 12.2685 38.2425 8.32275C38.2425 3.92275 34.6425 0.322754 30.2425 0.322754C25.8425 0.322754 22.2425 3.92275 22.2425 8.32275C22.2425 12.2685 25.1383 15.5688 28.9092 16.2087V38.9895H10.2424V16.2087C14.0133 15.5688 16.9091 12.2685 16.9091 8.32275C16.9091 3.92275 13.3091 0.322754 8.90909 0.322754C4.50909 0.322754 0.909088 3.92275 0.909088 8.32275C0.909088 12.2685 3.80487 15.5688 7.57581 16.2087V40.3228C7.57581 41.1228 8.10909 41.656 8.90909 41.656H28.9091V64.4368C25.1381 65.0767 22.2424 68.377 22.2424 72.3228C22.2424 76.7228 25.8424 80.3228 30.2424 80.3228C34.6424 80.3228 38.2424 76.7228 38.2424 72.3228C38.2424 68.377 35.3466 65.0767 31.5757 64.4368V41.656H50.2424V64.4368C46.4714 65.0767 43.5757 68.377 43.5757 72.3228C43.5757 76.7228 47.1756 80.3228 51.5756 80.3228C55.9757 80.3228 59.5757 76.7228 59.5757 72.3228C59.5757 68.377 56.6799 65.0767 52.9089 64.4368V41.656H71.5757V64.4368C67.8047 65.0767 64.9089 68.377 64.9089 72.3228C64.9089 76.7228 68.5089 80.3228 72.9089 80.3228C77.3089 80.3228 80.9089 76.7228 80.9089 72.3228C80.9091 68.377 78.0133 65.0767 74.2424 64.4368ZM67.5758 8.32275C67.5758 5.38947 69.9758 2.98947 72.9091 2.98947C75.8424 2.98947 78.2424 5.38947 78.2424 8.32275C78.2424 11.256 75.8424 13.656 72.9091 13.656C69.9758 13.656 67.5758 11.256 67.5758 8.32275ZM46.2424 8.32275C46.2424 5.38947 48.6424 2.98947 51.5756 2.98947C54.5089 2.98947 56.9089 5.38947 56.9089 8.32275C56.9089 11.256 54.5089 13.656 51.5756 13.656C48.6424 13.656 46.2424 11.256 46.2424 8.32275ZM24.9091 8.32275C24.9091 5.38947 27.3091 2.98947 30.2424 2.98947C33.1757 2.98947 35.5756 5.38947 35.5756 8.32275C35.5756 11.256 33.1757 13.656 30.2424 13.656C27.3091 13.656 24.9091 11.256 24.9091 8.32275ZM3.57581 8.32275C3.57581 5.38947 5.97581 2.98947 8.90909 2.98947C11.8424 2.98947 14.2424 5.38947 14.2424 8.32275C14.2424 11.256 11.8424 13.656 8.90909 13.656C5.97581 13.656 3.57581 11.256 3.57581 8.32275ZM35.5758 72.3228C35.5758 75.256 33.1758 77.656 30.2425 77.656C27.3092 77.656 24.9092 75.256 24.9092 72.3228C24.9092 69.3895 27.3092 66.9895 30.2425 66.9895C33.1758 66.9895 35.5758 69.3895 35.5758 72.3228ZM56.9091 72.3228C56.9091 75.256 54.5091 77.656 51.5758 77.656C48.6425 77.656 46.2425 75.256 46.2425 72.3228C46.2425 69.3895 48.6425 66.9895 51.5758 66.9895C54.5091 66.9895 56.9091 69.3895 56.9091 72.3228ZM72.9091 77.656C69.9758 77.656 67.5758 75.256 67.5758 72.3228C67.5758 69.3895 69.9758 66.9895 72.9091 66.9895C75.8424 66.9895 78.2424 69.3895 78.2424 72.3228C78.2424 75.256 75.8424 77.656 72.9091 77.656Z" fill="#F3B30E"/>
</svg>
