<svg width="393" height="151" viewBox="0 0 393 151" fill="none" xmlns="http://www.w3.org/2000/svg">
<g clip-path="url(#clip0_502_2)">
<mask id="mask0_502_2" style="mask-type:alpha" maskUnits="userSpaceOnUse" x="0" y="0" width="645" height="151">
<path d="M645 0H0V151H645V0Z" fill="white"/>
</mask>
<g mask="url(#mask0_502_2)">
<path d="M40.7137 0H110.311C124.469 0 129.598 1.47854 134.758 4.24688C139.88 6.95499 144.068 11.1424 146.777 16.264C149.546 21.4231 151.024 26.5508 151.024 40.7071V110.293C151.024 124.449 149.546 129.577 146.777 134.736C144.068 139.858 139.88 144.045 134.758 146.753C129.598 149.521 124.469 151 110.311 151H40.7137C26.5551 151 21.4266 149.521 16.2666 146.753C11.1442 144.045 6.95611 139.858 4.24756 134.736C1.47878 129.608 0 124.449 0 110.293V40.7071C0 26.5508 1.47878 21.4231 4.24756 16.264C6.95611 11.1424 11.1442 6.95499 16.2666 4.24688C21.4266 1.47854 26.5551 0 40.7137 0Z" fill="#EAE60E"/>
<path d="M113.237 30.6404C115.142 30.6487 116.967 31.4114 118.311 32.7615C119.656 34.1116 120.411 35.9392 120.411 37.8443V55.7127H135.387V37.8443C135.387 25.5756 125.445 15.6348 113.237 15.6348H95.3027V30.6404H113.237Z" fill="#63666A"/>
<path d="M120.411 113.25C120.411 115.152 119.655 116.977 118.309 118.322C116.964 119.667 115.139 120.422 113.237 120.422H95.3027V135.365H113.237C119.103 135.357 124.728 133.025 128.879 128.881C133.03 124.736 135.37 119.116 135.387 113.25V95.3186H120.411V113.25Z" fill="#63666A"/>
<path d="M30.6133 37.8443C30.6092 36.8983 30.7914 35.9607 31.1497 35.0851C31.508 34.2095 32.0352 33.413 32.7013 32.7411C33.3675 32.0693 34.1595 31.5352 35.0321 31.1693C35.9046 30.8035 36.8408 30.6131 37.787 30.6089H55.7211V15.6348H37.787C31.9066 15.6514 26.2727 17.9987 22.1205 22.162C17.9683 26.3253 15.6367 31.9649 15.6367 37.8443V55.7127H30.6133V37.8443Z" fill="#63666A"/>
<path d="M37.787 120.422C35.8869 120.414 34.0671 119.656 32.7236 118.313C31.38 116.969 30.6216 115.15 30.6133 113.25V95.3186H15.6367V113.25C15.6533 119.116 17.9934 124.736 22.1446 128.881C26.2959 133.025 31.9203 135.357 37.787 135.365H55.7211V120.422H37.787Z" fill="#63666A"/>
<path d="M66.8919 111.425L34.8936 79.4324L45.4653 68.8309L66.8604 90.2226L105.56 51.5288L116.132 62.1303L66.8919 111.425Z" fill="#63666A"/>
<path d="M211.434 96.4826C213.511 98.8735 214.58 101.768 214.58 105.165C214.58 107.934 213.825 110.513 212.315 112.873C210.65 115.405 208.291 117.404 205.519 118.629C202.467 120.076 198.691 120.8 194.192 120.8C190.894 120.801 187.608 120.399 184.407 119.605C181.442 118.899 178.607 117.732 176.006 116.144L180.82 106.172C184.681 108.681 189.179 110.034 193.783 110.073C196.049 110.073 197.873 109.632 199.195 108.814C200.516 107.934 201.209 106.738 201.209 105.165C201.209 102.145 198.817 100.604 194.066 100.604H188.497V92.2043L196.867 83.1443H178.429V72.8889H212.221V81.2253L202.53 91.6695C206.4 92.4874 209.389 94.0918 211.466 96.4826" fill="#63666A"/>
<path d="M266.621 72.8889V119.762H253.312V101.485H235.158V119.73H221.849V72.9203H235.158V90.537H253.312V72.9203L266.621 72.8889Z" fill="#63666A"/>
<path d="M309.097 74.4934C312.438 76.2226 315.18 78.9198 316.963 82.2322C318.85 85.5982 319.763 89.6563 319.763 94.4066V119.762H306.454V109.381H288.079V119.762H274.959V94.3751C274.959 89.6564 275.903 85.5668 277.759 82.2007C279.542 78.8883 282.284 76.1911 285.625 74.462C289.264 72.6409 293.292 71.7339 297.361 71.8195C301.797 71.8195 305.699 72.7003 309.097 74.462V74.4934ZM306.454 99.0939V93.2426C306.454 89.8136 305.604 87.2341 303.937 85.4724C303.076 84.5952 302.04 83.9093 300.896 83.4594C299.752 83.0095 298.526 82.8057 297.298 82.8614C294.466 82.8614 292.232 83.7422 290.565 85.4724C288.929 87.2341 288.079 89.8136 288.079 93.2426V99.0939H306.454Z" fill="#63666A"/>
<path d="M341.283 97.5208V119.762H328.069V72.8889H341.283V95.0985H341.598L358.085 72.8889H373.911L355.851 95.5389L374.414 119.762H357.235L341.283 97.5208Z" fill="#63666A"/>
<path d="M199.981 34.3525V58.3237H191.895V50.6479C190.291 51.1198 188.812 51.3714 187.49 51.3714C183.935 51.3714 181.198 50.5535 179.31 48.8548C177.485 47.2189 176.541 44.7652 176.541 41.5879V34.3525H184.596V40.7071C184.596 42.1541 184.91 43.2237 185.571 43.9158C186.2 44.6394 187.207 44.9854 188.529 44.9854C189.913 44.9854 191.046 44.7966 191.895 44.4191V34.3525H199.981Z" fill="#63666A"/>
<path d="M224.963 52.2208V58.3237H205.173V34.3525H224.523V40.4554H213.07V43.2866H223.138V49.075H213.07V52.2208H224.963Z" fill="#63666A"/>
<path d="M235.22 56.7193C233.208 55.7088 231.52 54.1518 230.352 52.2267C229.183 50.3017 228.58 48.0864 228.613 45.8347C228.582 43.5792 229.185 41.3602 230.353 39.4304C231.521 37.5006 233.207 35.9373 235.22 34.9186C237.297 33.8491 239.625 33.3457 242.174 33.3457C244.534 33.3457 246.642 33.7232 248.498 34.5411C250.386 35.3591 251.896 36.5545 253.092 38.0959L247.932 42.6574C247.325 41.7991 246.524 41.0955 245.595 40.6037C244.666 40.1119 243.634 39.8455 242.583 39.8261C240.884 39.8261 239.499 40.3924 238.461 41.462C237.423 42.563 236.888 43.9786 236.888 45.8347C236.888 47.6278 237.423 49.1063 238.461 50.1759C239.499 51.2455 240.884 51.7803 242.583 51.7803C244.628 51.7803 246.421 50.8366 247.932 49.012L253.092 53.542C251.896 55.0834 250.354 56.2788 248.498 57.0968C246.642 57.9147 244.534 58.3236 242.205 58.3236C239.594 58.3236 237.297 57.7888 235.22 56.7507" fill="#63666A"/>
<path d="M277.57 40.6441H270.585V58.3237H262.688V40.6441H255.703V34.3525H277.57V40.6441Z" fill="#63666A"/>
<path d="M305.195 34.3525V58.3237H296.983V49.5154H289.432V58.3237H281.22V34.3525H289.401V42.8462H296.952V34.3525H305.195Z" fill="#63666A"/>
<path d="M333.449 49.6412C333.449 52.441 332.506 54.5802 330.618 56.0902C328.73 57.5687 326.213 58.2923 322.941 58.2923H310.89V34.3839H318.945V41.7137H323.979C326.999 41.7137 329.328 42.3744 330.995 43.7271C332.631 45.0483 333.449 47.0302 333.449 49.6412ZM325.206 49.7671C325.206 48.1627 324.262 47.3762 322.374 47.3762H318.945V52.6612H322.406C323.15 52.6841 323.874 52.4129 324.419 51.9062C324.692 51.6236 324.902 51.2875 325.037 50.9193C325.173 50.551 325.23 50.1587 325.206 49.7671ZM335.652 34.3525H343.707V58.3237H335.652V34.3525Z" fill="#63666A"/>
<path d="M348.929 34.3526H356.921V46.8101L365.227 34.3526H372.873V58.3239H364.881V45.8664L356.606 58.3239H348.929V34.3526ZM355.127 31.5214C353.932 30.5147 353.366 29.0361 353.366 27.0857H358.777C358.777 27.8407 358.935 28.407 359.249 28.753C359.564 29.0676 360.099 29.2878 360.885 29.2878C361.672 29.2878 362.207 29.0991 362.553 28.753C362.867 28.4384 363.056 27.8407 363.056 27.0857H368.468C368.468 29.0361 367.839 30.5147 366.675 31.4899C365.479 32.4651 363.528 32.9684 360.885 32.9684C358.211 32.9684 356.292 32.4651 355.127 31.4899V31.5214Z" fill="#63666A"/>
</g>
</g>
<defs>
<clipPath id="clip0_502_2">
<rect width="393" height="151" fill="white"/>
</clipPath>
</defs>
</svg>
