<svg width="308" height="34" viewBox="0 0 308 34" fill="none" xmlns="http://www.w3.org/2000/svg">
<path d="M135.902 19.0366L132.99 28.6678C132.378 28.7201 131.609 28.8009 130.414 28.8009C124.698 28.8009 125.335 27.2528 127.745 18.8601C130.254 10.1354 131.712 8.5439 135.278 8.5439C138.712 8.5439 138.74 10.626 137.866 13.26H146.578C147.991 8.34349 147.048 3.98486 136.861 3.98486C125.516 3.98486 122.435 6.13726 118.779 18.8601C115.375 30.708 116.493 33.8506 128.755 33.8506C134.57 33.8506 137.007 33.4646 140.547 32.8858L144.648 19.0366H135.902L135.902 19.0366ZM156.683 28.5363C155.548 28.5363 155.149 28.2267 155.365 27.3995L157.341 20.4323H168.997L170.311 15.8613H158.653L159.976 11.2155C160.325 10.0009 161.285 8.96885 163.16 8.96885H172.495L173.81 4.39335H160.247C154.623 4.39335 152.931 5.29827 150.742 12.9161L146.715 26.8476C145.478 31.5233 147.021 33.5575 151.265 33.5575H162.969C165.272 33.5575 166.758 32.4552 167.473 30.765L168.433 28.5363H156.683V28.5363ZM290.01 28.5363C288.875 28.5363 288.476 28.2267 288.692 27.3995L290.668 20.4323H302.325L303.64 15.8613H291.983L293.306 11.2155C293.656 10.0009 294.613 8.96885 296.49 8.96885H305.822L307.136 4.39336H293.576C287.946 4.39336 286.259 5.29828 284.068 12.9162L280.045 26.8476C278.808 31.5233 280.351 33.5575 284.594 33.5575H296.3C298.604 33.5575 300.085 32.4552 300.801 30.765L301.761 28.5363H290.01V28.5363ZM98.0379 28.5764H95.6447L101.279 8.97454C102.002 8.97155 102.272 8.94613 104.067 8.94613C109.126 8.94613 109.12 10.4523 106.705 18.851C104.267 27.3514 102.849 28.5764 98.0379 28.5764M105.515 4.39455H93.8464L85.7195 32.6822C85.5799 33.1668 85.8957 33.5572 86.4208 33.5572H96.813C109.866 33.5572 112.065 31.3121 115.646 18.851C118.757 8.02474 116.839 4.39455 105.515 4.39455M268.736 4.33771C262.015 4.33771 258.892 4.46784 257.055 4.39454L248.924 32.6822C248.782 33.1668 249.098 33.5572 249.623 33.5572H257.421L264.484 8.97454C265.204 8.97155 266.299 8.9177 267.404 8.9177C271.192 8.9177 271.692 10.1308 270.692 13.6054L265.207 32.6822C265.069 33.1668 265.383 33.5572 265.909 33.5572H273.705L279.439 13.6054C281.423 6.69501 278.049 4.33771 268.736 4.33771M201.212 4.39395L199.864 9.13249H208.526C208.612 9.13249 208.614 9.23121 208.534 9.28506C207.152 10.2184 206.307 11.5571 205.907 12.9526L200.225 32.6831C200.087 33.1662 200.402 33.5581 200.928 33.5581H209.295L216.329 9.13249H220.618C223.025 9.13249 224.489 8.22458 225.303 6.33245L226.123 4.39396H201.212L201.212 4.39395ZM79.8304 33.5574L87.9606 5.26971C88.1002 4.78659 87.7861 4.3932 87.261 4.3932H79.0194L70.8891 32.6824C70.7495 33.167 71.0636 33.5574 71.5905 33.5574H79.8304V33.5574ZM232.313 29.0636C228.574 29.0636 228.017 27.8355 230.626 18.7444C232.802 11.1803 234.874 8.54333 238.211 8.54333C241.951 8.54333 242.365 10.3532 239.952 18.7444C237.565 27.0578 235.205 29.0636 232.313 29.0636M239.516 3.99175C229.704 3.99175 225.448 5.56378 221.59 18.9777C218.255 30.5997 220.931 33.9621 230.906 33.9621C241.057 33.9621 245.069 32.0835 248.831 18.9777C251.557 9.49163 251.002 3.99175 239.516 3.99175" fill="black"/>
<path d="M5.99529 19.1935L11.0709 3.1725C11.5628 1.52569 13.5871 0.0224609 15.6313 0.0224609H31.1539C31.4148 0.0224609 31.4962 0.327581 31.2968 0.451737C23.2247 5.42213 13.4907 12.7992 6.43571 19.4014C6.25123 19.5764 5.92216 19.4373 5.99529 19.1935" fill="#FF0000"/>
<path d="M18.2589 28.8136L23.2813 13.002C23.3561 12.7627 23.0702 12.5877 22.8575 12.7537C15.4635 18.4735 6.54713 26.8317 0.967986 33.1513C0.826726 33.3129 0.899853 33.5567 1.14248 33.5567H22.8858C32.0547 33.5567 37.0721 31.0004 38.892 24.8933C40.3744 19.9169 37.476 16.5245 32.8525 15.6495C32.7694 15.633 32.6962 15.4939 32.8525 15.47C36.7647 14.8672 40.7101 13.4493 42.1178 8.31435C43.6401 2.75614 38.9185 -0.290708 33.4873 0.0219035L25.1776 26.208C24.7288 27.6245 23.0453 28.8136 21.4465 28.8136H18.2589L18.2589 28.8136ZM65.5052 21.863C65.2144 20.994 64.9003 20.3598 64.4399 19.8423C64.3801 19.7749 64.3668 19.6852 64.4748 19.6553C68.1992 18.6217 70.6373 16.5037 71.6693 12.9154C73.0322 8.17239 69.7083 4.39412 61.3154 4.39412H48.8408L40.7089 32.6818C40.5693 33.1664 40.8834 33.5568 41.4103 33.5568H49.2065L56.2698 8.97411C57.0243 8.97113 57.7455 8.9457 59.5405 8.9457C62.5452 8.9457 63.6554 10.615 63.0089 12.8661C62.1564 15.8336 59.6003 17.4999 56.5639 17.4999H55.4155L58.6596 31.6138C59.0452 32.9899 59.8147 33.5568 61.5697 33.5568H68.5316L65.5052 21.863L65.5052 21.863ZM171.603 23.6778C168.302 30.7826 172.607 34 181.372 34C189.374 34 193.813 32.2874 195.718 25.6657C196.367 23.4011 195.95 20.9585 194.405 19.4478C191.412 16.5206 185.658 15.9732 183.635 14.2755C182.607 13.4125 182.615 12.2054 182.914 11.1658C183.462 9.25725 184.887 8.2177 187.195 8.2177C190.812 8.2177 190.903 10.2205 190.015 12.5973H197.775C199.6 7.63437 197.208 3.74391 188.068 3.74391C180.378 3.74391 176.226 6.46169 174.736 11.6639C174.325 13.0909 174.476 15.4198 175.425 16.8796C177.536 20.1344 183.132 20.5397 186.228 22.4767C187.572 23.3188 187.617 24.4556 187.257 25.7046C186.56 28.1337 185.204 29.2914 182.507 29.2914C179.912 29.2914 178.355 27.9332 179.839 23.6778H171.603H171.603Z" fill="black"/>
</svg>
