<svg width="188" height="40" viewBox="0 0 188 40" fill="none" xmlns="http://www.w3.org/2000/svg">
<path fill-rule="evenodd" clip-rule="evenodd" d="M75.1762 29.8303H65.5476V10.0628H69.1815V26.2776H75.1762V29.8303ZM0 19.9997C0 31.0454 12.4586 40 27.8277 40C43.1968 40 55.6558 31.0454 55.6558 19.9997C55.6558 8.95432 43.1968 6.44759e-07 27.8277 6.44759e-07C12.4586 6.44759e-07 0 8.95432 0 19.9997ZM3.11458 19.9997C3.11458 29.5074 14.2051 37.2152 27.8857 37.2152C41.5657 37.2152 52.6565 29.5074 52.6565 19.9997C52.6565 10.4923 41.5657 2.78476 27.8857 2.78476C14.2051 2.78476 3.11458 10.4923 3.11458 19.9997ZM5.26992 19.9997C5.26992 23.9791 7.67629 27.6414 11.5658 30.3447C12.4715 30.974 13.4557 31.5512 14.5073 32.0682L25.6604 5.08243C20.1448 5.4341 15.2198 7.11571 11.5658 9.65549C7.67661 12.3582 5.26992 16.0206 5.26992 19.9997ZM19.602 33.9494C22.1503 34.6196 24.9227 34.9868 27.828 34.9868C30.7335 34.9868 33.5062 34.6196 36.054 33.9494C31.7098 22.9514 31.9696 23.5708 27.8276 12.8463C23.69 23.5614 23.9392 22.9726 19.602 33.9494ZM41.149 32.0679C42.2004 31.5508 43.1842 30.974 44.0902 30.3447C47.9799 27.6414 50.3861 23.9791 50.3861 19.9997C50.3861 16.0211 47.9799 12.3587 44.0902 9.65549C40.4359 7.11571 35.5114 5.4341 29.9957 5.08243L41.149 32.0679ZM97.7301 29.8303H93.7248L91.7092 24.7283H84.4947L82.4784 29.8303H78.473L86.6426 10.0628H89.5605L97.7301 29.8303ZM90.3297 21.1751L88.1016 15.4051L85.8737 21.1751H90.3297ZM117.765 20.0535C117.765 21.282 117.597 22.4398 117.261 23.5263C116.712 25.2889 115.775 26.6959 114.449 27.7464C112.681 29.1358 110.302 29.8303 107.314 29.8303H101.797V10.0628H107.234C110.01 10.0628 112.256 10.6415 113.972 11.7991C115.368 12.7249 116.385 14.0427 117.022 15.7522C117.517 17.0525 117.765 18.4861 117.765 20.0535ZM114.13 20.0535C114.13 17.3644 113.193 15.512 111.319 14.4968C110.24 13.9093 108.808 13.6155 107.022 13.6155H105.431V26.2776H107.207C108.958 26.2776 110.355 25.9926 111.398 25.4227C113.22 24.4252 114.13 22.6356 114.13 20.0535ZM142.122 20.04C142.122 22.9029 141.128 25.3246 139.139 27.3104C137.149 29.2915 134.696 30.2845 131.778 30.2845C128.86 30.2845 126.406 29.2915 124.417 27.3104C122.428 25.3246 121.433 22.9029 121.433 20.04C121.433 17.1594 122.428 14.7195 124.417 12.7161C126.406 10.7173 128.86 9.71563 131.778 9.71563C134.696 9.71563 137.149 10.7173 139.139 12.7161C141.128 14.7195 142.122 17.1594 142.122 20.04ZM138.489 19.96C138.489 18.1123 137.847 16.536 136.566 15.2272C135.284 13.9228 133.688 13.2684 131.778 13.2684C129.851 13.2684 128.25 13.9182 126.977 15.2136C125.703 16.5138 125.067 18.0941 125.067 19.96C125.067 21.843 125.713 23.4416 127.003 24.7594C128.294 26.0725 129.877 26.7317 131.751 26.7317C133.679 26.7317 135.284 26.0685 136.566 24.746C137.847 23.4193 138.489 21.8255 138.489 19.96ZM166.693 19.7596C166.693 22.4753 165.897 24.8128 164.305 26.767C162.396 29.1135 159.716 30.2845 156.268 30.2845C152.944 30.2845 150.309 29.1805 148.364 26.9767C146.648 25.0351 145.791 22.7337 145.791 20.0664C145.791 17.4354 146.666 15.1115 148.417 13.1033C150.397 10.846 152.997 9.71563 156.215 9.71563C158.461 9.71563 160.424 10.2585 162.104 11.3448C163.783 12.4311 164.986 13.9451 165.711 15.8862H161.361C160.848 15.0314 160.163 14.3811 159.305 13.9364C158.448 13.491 157.418 13.2684 156.215 13.2684C154.058 13.2684 152.351 13.9893 151.096 15.4273C149.982 16.6876 149.425 18.1922 149.425 19.933C149.425 21.7449 150.017 23.2989 151.202 24.5991C152.511 26.0192 154.235 26.7317 156.374 26.7317C157.63 26.7317 158.77 26.4379 159.796 25.8545C160.822 25.2713 161.591 24.3899 162.104 23.2054H153.907V19.7596H166.693ZM188 29.8303H183.995L181.979 24.7283H174.764L172.748 29.8303H168.743L176.912 10.0628H179.83L188 29.8303ZM180.599 21.1751L178.371 15.4051L176.144 21.1751H180.599Z" fill="#004A96"/>
</svg>
