<svg width="181" height="151" viewBox="0 0 181 151" fill="none" xmlns="http://www.w3.org/2000/svg">
<g clip-path="url(#clip0_2_178)">
<path d="M177.586 92.969V88.1865H168.739V51.8326H164.436L152.715 56.6151L153.911 61.8754L162.998 58.2885V88.184H152.95V92.9665H177.586V92.969Z" fill="#002C6C"/>
<path d="M147.453 73.3563C147.453 112.339 115.644 143.905 76.4257 143.905C37.2028 143.905 5.3938 112.339 5.3938 73.3563C5.63144 34.3736 37.2053 2.80713 76.4257 2.80713C115.646 2.80713 147.453 34.3736 147.453 73.3563Z" fill="#002C6C"/>
<path d="M91.0132 52.0752C80.4927 52.0752 72.5962 60.6847 72.5962 72.4033V72.881C72.5962 85.0749 80.015 93.2091 90.7731 93.2091C96.7512 93.2091 101.299 90.8154 104.165 88.6593V71.2052H90.533V75.5099H99.3801V85.7928L99.14 86.0329C96.9889 87.4661 94.1224 88.4216 91.2509 88.4216C83.3568 88.4216 78.3342 82.2059 78.3342 72.6409V72.4033C78.3342 63.5537 83.5969 56.8577 91.0108 56.8577C95.3155 56.8577 97.9469 58.2909 100.098 60.2044L103.212 56.1423C99.3801 53.2708 95.7957 52.0752 91.0132 52.0752Z" fill="white"/>
<path d="M111.819 87.7087C115.886 91.2906 120.666 92.969 125.691 92.969C133.345 92.969 138.363 88.4216 138.363 81.7257C138.363 76.2278 135.496 73.1187 127.605 70.2497C120.431 67.3782 118.515 65.7073 118.515 62.358C118.515 59.0088 121.387 56.6176 125.454 56.6176C128.325 56.6176 131.424 57.8132 134.536 60.2044L137.65 56.1423C134.301 53.2708 130.234 51.8351 125.691 51.8351C118.277 51.8351 113.257 56.3775 113.257 62.5957C113.257 69.054 117.322 71.6854 124.741 74.5519C131.189 76.9456 133.348 78.6215 133.348 81.9732C133.348 85.5576 130.236 88.1889 125.936 88.1889C121.151 88.1889 117.567 85.7952 115.173 83.6441L111.819 87.7087Z" fill="white"/>
<path d="M130.716 15.0059C130.716 11.1814 133.818 8.06982 137.65 8.06982C141.477 8.06982 144.584 11.1814 144.584 15.0059C144.584 18.8304 141.477 21.9395 137.65 21.9395C133.818 21.9395 130.716 18.8304 130.716 15.0059ZM143.148 15.0059C143.148 11.8968 140.754 9.50309 137.647 9.50309C134.533 9.50309 132.145 11.8943 132.145 15.0059C132.145 18.1126 134.533 20.5063 137.647 20.5063C140.754 20.5063 143.148 18.1126 143.148 15.0059ZM135.014 11.6542H138.125C139.558 11.6542 140.754 12.3721 140.754 13.8078C140.754 14.7658 140.279 15.4812 139.321 15.9614L140.992 18.3527H139.083L137.65 16.2015H136.692V18.3527H135.014V11.6542ZM138.125 14.7658C138.846 14.7658 139.321 14.2881 139.321 13.8078C139.321 13.3276 138.846 12.8498 138.125 12.8498H136.692V14.7633H138.125V14.7658Z" fill="#002C6C"/>
<path d="M19.9814 73.3563C19.9814 41.072 44.8544 14.7658 76.6658 12.1345V11.8943C42.4631 11.8943 14.7212 39.3962 14.7212 73.3563C14.7212 107.319 42.4631 134.821 76.4257 134.821V134.583C44.8544 131.949 19.9814 105.403 19.9814 73.3563Z" fill="white"/>
<path d="M33.8535 73.3563C33.8535 46.3322 54.4217 24.0932 80.9655 21.4618L80.7279 21.2217C52.2681 21.6994 29.071 44.899 29.071 73.3563C29.071 101.819 52.028 125.018 80.7279 125.493L80.9655 125.256C54.4192 122.382 33.8535 100.383 33.8535 73.3563Z" fill="white"/>
<path d="M47.008 73.3563C47.008 51.3573 63.7492 33.1804 85.2729 30.5515L85.0328 30.3114C61.5931 31.0293 42.9434 49.9216 42.9434 73.3563C42.9434 96.796 61.5931 115.691 85.0328 116.406L85.2729 116.164C63.7467 113.535 47.008 95.3602 47.008 73.3563Z" fill="white"/>
<path d="M59.6846 73.3563C59.6846 56.1423 72.5963 41.7923 89.5776 39.8788V39.6387C71.163 40.1165 56.5754 54.9467 56.5754 73.3588C56.5754 91.7733 71.4007 106.604 89.5776 107.084V106.839C72.8389 104.688 59.6846 90.5802 59.6846 73.3563Z" fill="white"/>
</g>
<defs>
<clipPath id="clip0_2_178">
<rect width="180.061" height="151" fill="white"/>
</clipPath>
</defs>
</svg>
