<svg width="208" height="50" viewBox="0 0 208 50" fill="none" xmlns="http://www.w3.org/2000/svg">
<g clip-path="url(#clip0_301_85)">
<g clip-path="url(#clip1_301_85)">
<path d="M75.2877 36.8181C72.7119 39.6969 69.8331 40.909 67.8634 40.909C66.3483 40.909 65.2877 40.1514 64.9846 38.6363C64.5301 36.6666 64.8331 33.3332 65.8937 28.6363C66.3483 26.6666 67.2574 23.6363 68.7725 19.5453C68.621 19.5453 68.621 19.6969 68.4695 19.6969C67.8634 20.3029 67.2574 21.212 66.8028 22.5756C63.318 30.4544 57.4089 43.9393 55.1362 46.9696C51.0452 52.7272 44.2271 54.3938 42.2574 50.606C39.8331 46.0605 45.2877 42.2726 45.2877 42.2726C45.2877 42.2726 46.6513 48.4847 52.8634 42.8787C55.4392 40.6059 61.8028 27.1211 64.6816 20.4544C65.2877 18.9393 66.0452 18.0302 66.9543 17.2726C67.5604 16.8181 69.2271 16.212 71.0452 16.0605L76.1968 15.4544C76.3483 15.4544 76.4998 15.6059 76.4998 15.909C74.5301 21.3635 73.0149 26.212 71.8028 30.606C71.1968 33.3332 71.1968 34.6969 72.2574 34.6969C73.0149 34.6969 74.9846 34.2423 76.4998 32.5756C77.7119 31.0605 78.4695 29.9999 79.2271 28.4847C79.9846 28.0302 80.4392 28.1817 80.8937 29.2423C79.2271 32.4241 77.5604 34.2423 75.2877 36.8181M208.318 28.3332C207.106 31.0605 205.591 33.6363 203.773 36.0605C201.5 39.2423 199.53 40.909 197.863 40.909C195.439 40.909 194.379 39.0908 194.53 35.6059C192.106 39.2423 189.682 41.0605 187.106 41.0605C184.227 41.0605 182.863 38.9393 183.015 34.8484C179.833 38.4847 176.651 40.909 174.227 40.7575C170.894 40.4544 169.076 33.3332 168.621 28.7878V28.9393C168.621 29.0908 168.469 29.5453 168.318 29.8484C166.954 34.3938 165.742 38.3332 165.439 39.0908C165.136 39.9999 164.682 40.3029 164.379 40.3029H158.773C158.773 40.1514 159.53 37.4241 160.591 33.9393C159.985 34.6969 159.379 35.4544 158.924 36.0605C156.5 39.0908 154.379 40.7575 152.56 40.7575C151.045 40.7575 149.985 39.9999 149.682 38.4847C149.227 36.6666 149.53 33.3332 150.591 28.6363H144.53C143.015 33.6363 141.651 38.3332 141.348 39.2423C141.045 40.1514 140.591 40.4544 140.288 40.4544H134.682C134.833 39.9999 141.045 18.7878 141.651 16.8181C141.803 16.515 141.954 16.3635 142.257 16.3635L148.166 15.6059C148.318 15.6059 148.469 15.7575 148.469 16.0605C148.318 16.3635 146.803 21.212 145.288 26.515H151.197C151.803 24.2423 152.863 20.909 154.379 16.8181C154.53 16.515 154.682 16.3635 154.985 16.3635L160.894 15.6059C161.045 15.6059 161.197 15.7575 161.197 16.0605C159.227 21.515 157.712 26.3635 156.5 30.7575C155.894 33.4847 156.045 34.8484 156.954 34.8484C158.166 34.8484 161.5 30.1514 162.56 28.0302C164.076 22.7272 165.591 17.7272 166.045 16.8181C166.197 16.515 166.348 16.3635 166.651 16.3635L172.56 15.6059C172.712 15.6059 172.863 15.7575 172.863 16.0605C172.712 16.3635 171.045 22.1211 169.227 27.7272C169.833 27.4241 170.439 27.1211 170.894 26.8181C173.773 24.9999 177.106 21.6666 176.197 17.4241C176.197 17.1211 176.197 16.9696 176.5 16.9696L183.621 14.8484C183.773 14.8484 183.924 14.8484 183.924 15.1514C183.924 15.909 183.924 16.6666 183.773 17.5756C182.56 24.8484 175.742 26.6666 174.53 27.5756C174.53 27.5756 176.348 35.7575 178.166 36.0605C179.227 36.212 181.5 34.5453 183.469 31.9696C183.621 31.0605 183.773 29.9999 184.076 28.9393C185.136 24.8484 186.651 21.6666 188.924 19.0908C190.894 16.8181 193.166 15.6059 195.288 15.6059C197.257 15.6059 198.318 16.9696 198.621 19.8484L199.682 16.515C199.833 16.212 199.985 16.0605 200.136 16.0605L206.045 15.3029C206.197 15.3029 206.348 15.4544 206.348 15.6059C204.379 21.0605 202.863 25.909 201.651 30.3029C201.045 33.0302 201.045 34.3938 201.954 34.3938C202.409 34.3938 203.166 33.3332 204.379 31.212C205.288 29.5453 206.045 28.1817 206.5 26.9696C206.803 26.8181 207.106 26.8181 207.409 26.9696C208.015 27.5756 208.318 27.8787 208.318 28.3332V28.3332ZM196.045 18.4847C195.288 18.4847 194.53 19.2423 193.773 20.6059C192.712 22.2726 191.954 24.3938 191.348 27.1211C190.742 29.6969 190.591 31.6666 190.742 33.1817C190.894 34.3938 191.197 35.1514 191.803 35.1514C192.409 35.1514 193.166 34.5453 193.924 33.3332C194.833 31.8181 195.742 29.5453 196.348 26.8181C197.56 21.212 197.56 18.4847 196.045 18.4847V18.4847ZM125.894 18.4847C125.136 18.4847 124.379 19.2423 123.621 20.6059C122.56 22.2726 121.803 24.3938 121.197 27.1211C120.591 29.6969 120.439 31.6666 120.591 33.1817C120.742 34.3938 121.045 35.1514 121.651 35.1514C122.257 35.1514 122.863 34.5453 123.773 33.3332C124.682 31.8181 125.591 29.5453 126.197 26.8181C127.409 21.212 127.257 18.4847 125.894 18.4847ZM138.166 28.3332C136.954 31.0605 135.439 33.6363 133.621 36.0605C131.348 39.3938 129.379 40.909 127.712 40.909C125.288 40.909 124.227 39.0908 124.379 35.6059C121.954 39.2423 119.53 41.0605 116.954 41.0605C113.773 41.0605 112.409 38.4847 113.015 33.4847C109.379 37.7272 105.742 41.0605 103.015 40.7575C99.6816 40.4544 97.8634 33.3332 97.4089 28.7878V28.9393C97.4089 29.0908 97.2574 29.5453 97.1058 29.8484C95.7422 34.3938 94.5301 38.3332 94.2271 39.0908C93.924 39.9999 93.4695 40.3029 93.1665 40.3029H87.5604C87.5604 39.9999 89.2271 34.5453 90.8937 28.7878C90.7422 28.7878 90.5907 28.7878 90.4392 28.6363C89.2271 30.4544 84.9846 36.6666 84.5301 37.2726C82.5604 39.9999 81.4998 40.4544 79.6816 40.909C74.8331 42.2726 74.5301 39.5453 74.5301 39.5453C74.5301 39.5453 76.0452 39.3938 80.4392 33.0302C80.5907 32.7272 84.2271 28.0302 85.2877 26.515C82.8634 24.8484 80.5907 22.1211 80.5907 17.4241C80.5907 17.1211 80.5907 16.9696 80.8937 16.9696L88.0149 14.8484C88.1665 14.8484 88.318 14.8484 88.318 15.1514C85.1362 21.8181 89.8331 26.8181 90.8937 27.7272C92.4089 22.5756 93.924 17.5756 94.2271 16.8181C94.3786 16.515 94.5301 16.3635 94.8331 16.3635L100.742 15.6059C100.894 15.6059 101.045 15.7575 101.045 16.0605C100.894 16.3635 99.2271 22.1211 97.4089 27.7272C98.0149 27.4241 98.621 27.1211 99.0755 26.8181C101.954 24.9999 105.288 21.6666 104.379 17.4241C104.379 17.1211 104.379 16.9696 104.682 16.9696L112.257 14.9999C112.409 14.9999 112.56 14.9999 112.56 15.3029C112.56 16.0605 112.56 16.8181 112.409 17.7272C111.197 24.9999 104.379 26.8181 103.166 27.7272C103.166 27.7272 104.985 35.909 106.803 36.212C108.318 36.3635 111.5 33.6363 113.621 29.6969C113.621 29.5453 113.773 29.3938 113.773 29.0908C114.833 24.9999 116.348 21.8181 118.621 19.2423C120.591 16.9696 122.863 15.7575 124.985 15.7575C126.954 15.7575 128.015 17.1211 128.318 19.9999L129.379 16.6666C129.53 16.3635 129.682 16.212 129.833 16.212L135.591 15.4544C135.742 15.4544 135.894 15.6059 135.894 15.7575C133.924 21.212 132.409 26.0605 131.197 30.4544C130.591 33.1817 130.591 34.5453 131.5 34.5453C131.954 34.5453 132.712 33.4847 133.924 31.3635C134.833 29.6969 135.591 28.3332 136.045 27.1211C136.348 26.9696 136.651 26.9696 136.954 27.1211C137.712 27.5756 138.015 27.8787 138.166 28.3332V28.3332ZM19.3786 40.6059H5.89372L17.7119 4.0908C17.7119 4.0908 11.3483 6.21201 8.16645 11.8181C4.07554 18.7878 10.2877 19.2423 10.2877 19.2423C10.2877 19.2423 7.86342 25.4544 2.86342 23.7878C-1.22749 22.4241 -0.92446 15.3029 3.77251 10.3029C8.46948 4.84837 16.6513 0.302917 25.7422 -0.000112811C33.621 -0.303143 40.7422 3.33322 38.621 11.212C36.6513 18.0302 28.621 19.3938 28.1665 19.3938C37.2574 20.7575 39.2271 39.3938 19.3786 40.6059V40.6059ZM22.4089 17.5756H23.0149C23.0149 17.5756 28.4695 18.4847 31.4998 11.212C33.1665 7.27261 31.3483 3.78777 29.8331 3.03019C27.5604 1.81807 26.8028 4.0908 26.8028 4.0908C26.8028 4.0908 24.6816 10.6059 22.4089 17.5756V17.5756ZM22.4089 19.9999L21.6513 19.8484C19.5301 26.3635 17.4089 32.8787 17.1058 34.2423C16.1968 37.5756 18.621 38.9393 21.6513 37.2726C24.9846 35.4544 26.6513 29.3938 26.9543 24.9999C27.2574 20.3029 22.4089 19.9999 22.4089 19.9999V19.9999ZM42.8634 40.7575C37.2574 40.7575 34.9846 35.909 36.8028 28.1817C37.7119 24.3938 39.3786 21.3635 41.8028 19.0908C44.0755 16.9696 46.6513 15.7575 49.2271 15.7575C51.4998 15.7575 53.1665 16.8181 54.0755 18.9393C55.1361 21.0605 55.2877 23.6363 54.5301 26.9696C54.2271 28.1817 53.7725 29.5453 53.318 30.909C53.4695 30.909 53.7725 31.0605 54.0755 31.0605C55.2877 31.0605 56.3483 29.9999 57.2574 27.7272C57.7119 27.5756 58.621 27.8787 58.7725 28.7878C58.318 29.8484 57.7119 30.909 56.8028 31.8181C55.5907 33.0302 54.2271 33.7878 52.7119 33.7878H51.9543C49.3786 38.4847 46.3483 40.7575 42.8634 40.7575V40.7575ZM46.3483 35.1514C47.7119 35.1514 48.924 34.2423 50.1362 32.4241C48.7725 31.0605 48.4695 28.9393 49.0755 26.0605C49.6816 23.3332 50.8937 21.3635 52.4089 19.9999C51.6513 18.7878 50.8937 18.1817 49.8331 18.1817C48.4695 18.1817 47.2574 19.2423 46.0452 21.212C44.8331 23.0302 43.924 25.1514 43.318 27.7272C42.2574 32.4241 43.4695 34.9999 46.3483 35.1514V35.1514ZM211.803 12.2726C211.803 9.24231 214.227 6.81807 217.106 6.81807C219.985 6.81807 222.409 9.0908 222.409 12.2726C222.409 15.4544 219.985 17.7272 217.106 17.7272C214.379 17.7272 211.803 15.4544 211.803 12.2726ZM217.257 16.8181C219.682 16.8181 221.5 14.8484 221.5 12.2726C221.5 9.69686 219.682 7.72716 217.257 7.72716C214.833 7.72716 213.015 9.69686 213.015 12.2726C212.863 14.8484 214.833 16.8181 217.257 16.8181ZM216.045 15.4544H215.136V9.24231H217.409C218.773 9.24231 219.53 9.84837 219.53 11.0605C219.53 12.1211 218.924 12.7272 218.015 12.7272L219.682 15.4544H218.621L216.954 12.7272H215.894V15.4544H216.045ZM217.257 11.9696C218.015 11.9696 218.773 11.9696 218.773 10.909C218.773 10.1514 218.015 9.99989 217.409 9.99989H216.197V11.9696H217.257V11.9696Z" fill="#034EA1"/>
</g>
</g>
<defs>
<clipPath id="clip0_301_85">
<rect width="207.576" height="50" fill="white" transform="translate(0.13623)"/>
</clipPath>
<clipPath id="clip1_301_85">
<rect width="222.424" height="52.7273" fill="white" transform="translate(0.13623)"/>
</clipPath>
</defs>
</svg>
