<svg width="173" height="55" viewBox="0 0 173 55" fill="none" xmlns="http://www.w3.org/2000/svg">
<g clip-path="url(#clip0_301_68)">
<path d="M41.1628 45.459L36.3092 37.0314L31.5563 45.459H25.868L33.1763 32.7638L25.7271 20.978H31.6704L36.4434 28.8469L40.995 20.978H46.6832L39.3547 33.1472L46.8846 45.459H41.1628Z" fill="black"/>
<path d="M65.3796 37.1366C65.3796 42.5149 61.4972 45.88 56.4109 45.88C51.9354 45.88 48.1515 43.2936 47.7822 37.6604H52.6358C52.9693 40.1088 54.8444 41.1681 56.8875 41.1681C59.4318 41.1681 60.5283 39.3838 60.5283 37.0758C60.5283 34.6625 58.8231 33.1589 56.4467 33.1589C54.4708 33.1589 53.1662 34.1387 52.5643 35.1887H47.9232L49.5253 20.9873H64.7821L64.2742 25.7438H53.3587L52.9267 30.444C52.9267 30.444 54.0724 29.041 57.5453 29.041C61.7321 29.041 65.3773 31.978 65.3773 37.1553" fill="black"/>
<path d="M48.3549 17.9288C45.7702 7.40583 37.569 0 20.549 0H0L2.79044 19.7107C4.88719 37.4968 11.3967 43.219 22.9164 45.3259C22.9698 45.3408 23.0259 45.3419 23.0798 45.329C23.1336 45.3159 23.1836 45.2894 23.2254 45.2516C23.2671 45.2137 23.2994 45.1657 23.3193 45.1118C23.3391 45.0579 23.346 44.9997 23.3395 44.9424C23.34 44.8663 23.319 44.7919 23.2792 44.7282C23.2394 44.6645 23.1825 44.6146 23.1156 44.5847C15.3283 41.1588 14.44 29.9226 12.7773 18.649L11.4907 9.66475H23.2208C34.0356 9.66475 42.3868 9.48703 47.6723 18.2118C47.709 18.2742 47.7598 18.3264 47.8204 18.3635C47.8808 18.4006 47.9491 18.4215 48.0192 18.4245C48.067 18.4242 48.1143 18.414 48.1581 18.3943C48.2021 18.3746 48.2418 18.346 48.2749 18.31C48.3081 18.2741 48.3341 18.2315 48.3512 18.1849C48.3684 18.1384 48.3764 18.0886 48.375 18.0387C48.3758 18.0014 48.3705 17.9643 48.3593 17.9288" fill="#5FAF2D"/>
<path d="M93.3103 32.7079C93.3103 32.7079 94.5254 46.3223 81.3587 46.3223C74.4217 46.3223 69.0513 40.7685 69.0513 33.2271C69.0513 25.6856 74.4352 20.1318 81.5601 20.1318C87.0492 20.1318 91.4284 23.4336 93.0956 28.5174H90.0119C88.5507 25.1781 85.391 22.9987 81.5333 22.9987C76.0442 22.9987 71.9782 27.3576 71.9782 33.3112C71.9782 39.0848 75.8361 43.5489 81.5333 43.5489C86.3287 43.5489 89.9761 40.3546 90.3946 35.3083H81.0342V32.7359H93.3103V32.7079Z" fill="black"/>
<path d="M108.113 25.6269V28.7137C107.709 28.6654 107.302 28.6413 106.896 28.6411C102.899 28.6411 100.12 31.3631 100.12 36.4843V45.9223H97.2378V25.9566H100.12V30.423C101.266 27.4462 103.559 25.5591 106.929 25.5591C107.325 25.559 107.72 25.5831 108.113 25.6316" fill="black"/>
<path d="M129.214 35.9397C129.214 41.9307 124.871 46.3223 119.346 46.3223C113.855 46.3223 109.514 41.8933 109.514 35.9397C109.514 29.9485 113.926 25.5547 119.346 25.5547C124.802 25.5547 129.214 29.9485 129.214 35.9397ZM112.432 35.9397C112.432 40.3313 115.488 43.4554 119.346 43.4554C123.204 43.4554 126.283 40.3313 126.283 35.9397C126.283 31.5482 123.191 28.4239 119.346 28.4239C115.524 28.4239 112.432 31.5107 112.432 35.9397Z" fill="black"/>
<path d="M149.158 25.957V45.9273H146.264V41.9683C144.98 44.5826 142.755 46.3248 139.455 46.3248C135.217 46.3248 132.679 43.4929 132.679 38.6266V25.957H135.561V38.0467C135.561 41.6058 137.161 43.4578 140.288 43.4578C144.076 43.4578 146.264 40.626 146.264 36.1947V25.957H149.149H149.158Z" fill="black"/>
<path d="M172.586 35.9395C172.586 41.968 168.833 46.3221 163.622 46.3221C162.13 46.3532 160.657 45.9569 159.365 45.1762C158.074 44.3955 157.01 43.2601 156.291 41.8932V55.0001H153.406V25.9567H156.291V30.0583C157.008 28.6759 158.074 27.5253 159.372 26.7316C160.671 25.9379 162.153 25.5316 163.658 25.5568C168.833 25.5568 172.586 29.8782 172.586 35.9418V35.9395ZM169.677 35.9418C169.677 31.583 166.967 28.4261 163.109 28.4261C159.252 28.4261 156.267 31.5479 156.267 35.9418C156.267 40.3358 159.22 43.4576 163.109 43.4576C166.999 43.4576 169.677 40.3333 169.677 35.9418Z" fill="black"/>
</g>
<defs>
<clipPath id="clip0_301_68">
<rect width="172.586" height="55" fill="white"/>
</clipPath>
</defs>
</svg>
